<svg width="135" height="64" viewBox="0 0 135 64" fill="none" xmlns="http://www.w3.org/2000/svg">
<path d="M6.925 45.275C6.925 43.575 7.31667 42.05 8.1 40.7C8.9 39.35 9.975 38.3 11.325 37.55C12.6917 36.7833 14.1833 36.4 15.8 36.4C17.65 36.4 19.2917 36.8583 20.725 37.775C22.175 38.675 23.225 39.9583 23.875 41.625H20.45C20 40.7083 19.375 40.025 18.575 39.575C17.775 39.125 16.85 38.9 15.8 38.9C14.65 38.9 13.625 39.1583 12.725 39.675C11.825 40.1917 11.1167 40.9333 10.6 41.9C10.1 42.8667 9.85 43.9917 9.85 45.275C9.85 46.5583 10.1 47.6833 10.6 48.65C11.1167 49.6167 11.825 50.3667 12.725 50.9C13.625 51.4167 14.65 51.675 15.8 51.675C16.85 51.675 17.775 51.45 18.575 51C19.375 50.55 20 49.8667 20.45 48.95H23.875C23.225 50.6167 22.175 51.9 20.725 52.8C19.2917 53.7 17.65 54.15 15.8 54.15C14.1667 54.15 12.675 53.775 11.325 53.025C9.975 52.2583 8.9 51.2 8.1 49.85C7.31667 48.5 6.925 46.975 6.925 45.275ZM31.4359 35.5V54H28.5859V35.5H31.4359ZM49.1777 46.775C49.1777 47.2917 49.1444 47.7583 49.0777 48.175H38.5527C38.6361 49.275 39.0444 50.1583 39.7777 50.825C40.5111 51.4917 41.4111 51.825 42.4777 51.825C44.0111 51.825 45.0944 51.1833 45.7277 49.9H48.8027C48.3861 51.1667 47.6277 52.2083 46.5277 53.025C45.4444 53.825 44.0944 54.225 42.4777 54.225C41.1611 54.225 39.9777 53.9333 38.9277 53.35C37.8944 52.75 37.0777 51.9167 36.4777 50.85C35.8944 49.7667 35.6027 48.5167 35.6027 47.1C35.6027 45.6833 35.8861 44.4417 36.4527 43.375C37.0361 42.2917 37.8444 41.4583 38.8777 40.875C39.9277 40.2917 41.1277 40 42.4777 40C43.7777 40 44.9361 40.2833 45.9527 40.85C46.9694 41.4167 47.7611 42.2167 48.3277 43.25C48.8944 44.2667 49.1777 45.4417 49.1777 46.775ZM46.2027 45.875C46.1861 44.825 45.8111 43.9833 45.0777 43.35C44.3444 42.7167 43.4361 42.4 42.3527 42.4C41.3694 42.4 40.5277 42.7167 39.8277 43.35C39.1277 43.9667 38.7111 44.8083 38.5777 45.875H46.2027ZM52.4074 47.05C52.4074 45.6667 52.6908 44.4417 53.2574 43.375C53.8408 42.3083 54.6241 41.4833 55.6074 40.9C56.6074 40.3 57.7074 40 58.9074 40C59.9908 40 60.9324 40.2167 61.7324 40.65C62.5491 41.0667 63.1991 41.5917 63.6824 42.225V40.225H66.5574V54H63.6824V51.95C63.1991 52.6 62.5408 53.1417 61.7074 53.575C60.8741 54.0083 59.9241 54.225 58.8574 54.225C57.6741 54.225 56.5908 53.925 55.6074 53.325C54.6241 52.7083 53.8408 51.8583 53.2574 50.775C52.6908 49.675 52.4074 48.4333 52.4074 47.05ZM63.6824 47.1C63.6824 46.15 63.4824 45.325 63.0824 44.625C62.6991 43.925 62.1908 43.3917 61.5574 43.025C60.9241 42.6583 60.2408 42.475 59.5074 42.475C58.7741 42.475 58.0908 42.6583 57.4574 43.025C56.8241 43.375 56.3074 43.9 55.9074 44.6C55.5241 45.2833 55.3324 46.1 55.3324 47.05C55.3324 48 55.5241 48.8333 55.9074 49.55C56.3074 50.2667 56.8241 50.8167 57.4574 51.2C58.1074 51.5667 58.7908 51.75 59.5074 51.75C60.2408 51.75 60.9241 51.5667 61.5574 51.2C62.1908 50.8333 62.6991 50.3 63.0824 49.6C63.4824 48.8833 63.6824 48.05 63.6824 47.1ZM78.6258 40C79.7091 40 80.6758 40.225 81.5258 40.675C82.3924 41.125 83.0674 41.7917 83.5508 42.675C84.0341 43.5583 84.2758 44.625 84.2758 45.875V54H81.4508V46.3C81.4508 45.0667 81.1424 44.125 80.5258 43.475C79.9091 42.8083 79.0674 42.475 78.0008 42.475C76.9341 42.475 76.0841 42.8083 75.4508 43.475C74.8341 44.125 74.5258 45.0667 74.5258 46.3V54H71.6758V40.225H74.5258V41.8C74.9924 41.2333 75.5841 40.7917 76.3008 40.475C77.0341 40.1583 77.8091 40 78.6258 40ZM94.2861 54.225C93.2028 54.225 92.2278 54.0333 91.3611 53.65C90.5111 53.25 89.8361 52.7167 89.3361 52.05C88.8361 51.3667 88.5695 50.6083 88.5361 49.775H91.4861C91.5361 50.3583 91.8111 50.85 92.3111 51.25C92.8278 51.6333 93.4695 51.825 94.2361 51.825C95.0361 51.825 95.6528 51.675 96.0861 51.375C96.5361 51.0583 96.7611 50.6583 96.7611 50.175C96.7611 49.6583 96.5111 49.275 96.0111 49.025C95.5278 48.775 94.7528 48.5 93.6861 48.2C92.6528 47.9167 91.8111 47.6417 91.1611 47.375C90.5111 47.1083 89.9445 46.7 89.4611 46.15C88.9945 45.6 88.7611 44.875 88.7611 43.975C88.7611 43.2417 88.9778 42.575 89.4111 41.975C89.8445 41.3583 90.4611 40.875 91.2611 40.525C92.0778 40.175 93.0111 40 94.0611 40C95.6278 40 96.8861 40.4 97.8361 41.2C98.8028 41.9833 99.3195 43.0583 99.3861 44.425H96.5361C96.4861 43.8083 96.2361 43.3167 95.7861 42.95C95.3361 42.5833 94.7278 42.4 93.9611 42.4C93.2111 42.4 92.6361 42.5417 92.2361 42.825C91.8361 43.1083 91.6361 43.4833 91.6361 43.95C91.6361 44.3167 91.7695 44.625 92.0361 44.875C92.3028 45.125 92.6278 45.325 93.0111 45.475C93.3945 45.6083 93.9611 45.7833 94.7111 46C95.7111 46.2667 96.5278 46.5417 97.1611 46.825C97.8111 47.0917 98.3695 47.4917 98.8361 48.025C99.3028 48.5583 99.5445 49.2667 99.5611 50.15C99.5611 50.9333 99.3445 51.6333 98.9111 52.25C98.4778 52.8667 97.8611 53.35 97.0611 53.7C96.2778 54.05 95.3528 54.225 94.2861 54.225ZM116.641 46.775C116.641 47.2917 116.607 47.7583 116.541 48.175H106.016C106.099 49.275 106.507 50.1583 107.241 50.825C107.974 51.4917 108.874 51.825 109.941 51.825C111.474 51.825 112.557 51.1833 113.191 49.9H116.266C115.849 51.1667 115.091 52.2083 113.991 53.025C112.907 53.825 111.557 54.225 109.941 54.225C108.624 54.225 107.441 53.9333 106.391 53.35C105.357 52.75 104.541 51.9167 103.941 50.85C103.357 49.7667 103.066 48.5167 103.066 47.1C103.066 45.6833 103.349 44.4417 103.916 43.375C104.499 42.2917 105.307 41.4583 106.341 40.875C107.391 40.2917 108.591 40 109.941 40C111.241 40 112.399 40.2833 113.416 40.85C114.432 41.4167 115.224 42.2167 115.791 43.25C116.357 44.2667 116.641 45.4417 116.641 46.775ZM113.666 45.875C113.649 44.825 113.274 43.9833 112.541 43.35C111.807 42.7167 110.899 42.4 109.816 42.4C108.832 42.4 107.991 42.7167 107.291 43.35C106.591 43.9667 106.174 44.8083 106.041 45.875H113.666ZM123.67 42.225C124.087 41.525 124.637 40.9833 125.32 40.6C126.02 40.2 126.845 40 127.795 40V42.95H127.07C125.954 42.95 125.104 43.2333 124.52 43.8C123.954 44.3667 123.67 45.35 123.67 46.75V54H120.82V40.225H123.67V42.225Z" fill="#296544"/>
<path d="M11.6224 30.5C11.483 31.5 10.6577 34.2 10.6577 37L11.1714 36.2792L12.0985 35.5L16.4458 33L21.1083 30.9935L23.9189 29.3117L25.773 27.8701L27.7967 26L29.8869 23L31.559 20.5L33.2311 16L34.0671 12L34.7745 8L35.7392 3.5L35.7392 1.44156L35.3212 0L35.0439 1.44156L33.7754 3.5L30.4335 6L27.7967 8L25.2886 10L23.1985 11.5L21.1083 13.5L19.0182 16L17.3461 18.5L15.674 21L13.0694 26L11.6224 30.5Z" fill="url(#paint0_linear_1311_3587)"/>
<path d="M10.4809 30.5C10.5398 31.5 10.6577 34.2 10.6577 37L9.77343 35.5L9.066 34.5L7.82801 33L7.12058 32L6.2363 30.5L5.17516 29L4.46773 27.5L3.58344 25.5L2.5223 23L1.81488 20.5L1.10745 16L0.753736 12L0.45444 8L0.0463095 3.5V2L0.223166 0L0.250375 1.5L0.862571 3.5L2.29103 6L3.40659 8L4.46773 9.99999L5.35201 11.5L6.2363 13.5L7.12058 16L7.82801 18.5L8.53543 21L9.77343 26L10.4809 30.5Z" fill="url(#paint1_linear_1311_3587)"/>
<defs>
<linearGradient id="paint0_linear_1311_3587" x1="23.1985" y1="0" x2="23.1985" y2="37" gradientUnits="userSpaceOnUse">
<stop stop-color="#3DBC9F"/>
<stop offset="0.0001" stop-color="#4B9744"/>
<stop offset="0.140625" stop-color="#91C598"/>
<stop offset="1" stop-color="#D8F3ED"/>
</linearGradient>
<linearGradient id="paint1_linear_1311_3587" x1="5.35201" y1="0" x2="5.35201" y2="37" gradientUnits="userSpaceOnUse">
<stop stop-color="#FAFAFA"/>
<stop offset="1" stop-color="#D8F3ED"/>
</linearGradient>
</defs>
</svg>
