<svg width="77" height="44" viewBox="0 0 77 44" fill="none" xmlns="http://www.w3.org/2000/svg">
<path d="M14.28 33.376C14.28 33.7067 14.2587 34.0053 14.216 34.272H7.48C7.53333 34.976 7.79467 35.5413 8.264 35.968C8.73333 36.3947 9.30933 36.608 9.992 36.608C10.9733 36.608 11.6667 36.1973 12.072 35.376H14.04C13.7733 36.1867 13.288 36.8533 12.584 37.376C11.8907 37.888 11.0267 38.144 9.992 38.144C9.14933 38.144 8.392 37.9573 7.72 37.584C7.05867 37.2 6.536 36.6667 6.152 35.984C5.77867 35.2907 5.592 34.4907 5.592 33.584C5.592 32.6773 5.77333 31.8827 6.136 31.2C6.50933 30.5067 7.02667 29.9733 7.688 29.6C8.36 29.2267 9.128 29.04 9.992 29.04C10.824 29.04 11.5653 29.2213 12.216 29.584C12.8667 29.9467 13.3733 30.4587 13.736 31.12C14.0987 31.7707 14.28 32.5227 14.28 33.376ZM12.376 32.8C12.3653 32.128 12.1253 31.5893 11.656 31.184C11.1867 30.7787 10.6053 30.576 9.912 30.576C9.28267 30.576 8.744 30.7787 8.296 31.184C7.848 31.5787 7.58133 32.1173 7.496 32.8H12.376ZM20.155 38.144C19.4617 38.144 18.8377 38.0213 18.283 37.776C17.739 37.52 17.307 37.1787 16.987 36.752C16.667 36.3147 16.4963 35.8293 16.475 35.296H18.363C18.395 35.6693 18.571 35.984 18.891 36.24C19.2217 36.4853 19.6323 36.608 20.123 36.608C20.635 36.608 21.0297 36.512 21.307 36.32C21.595 36.1173 21.739 35.8613 21.739 35.552C21.739 35.2213 21.579 34.976 21.259 34.816C20.9497 34.656 20.4537 34.48 19.771 34.288C19.1097 34.1067 18.571 33.9307 18.155 33.76C17.739 33.5893 17.3763 33.328 17.067 32.976C16.7683 32.624 16.619 32.16 16.619 31.584C16.619 31.1147 16.7577 30.688 17.035 30.304C17.3123 29.9093 17.707 29.6 18.219 29.376C18.7417 29.152 19.339 29.04 20.011 29.04C21.0137 29.04 21.819 29.296 22.427 29.808C23.0457 30.3093 23.3763 30.9973 23.419 31.872H21.595C21.563 31.4773 21.403 31.1627 21.115 30.928C20.827 30.6933 20.4377 30.576 19.947 30.576C19.467 30.576 19.099 30.6667 18.843 30.848C18.587 31.0293 18.459 31.2693 18.459 31.568C18.459 31.8027 18.5443 32 18.715 32.16C18.8857 32.32 19.0937 32.448 19.339 32.544C19.5843 32.6293 19.947 32.7413 20.427 32.88C21.067 33.0507 21.5897 33.2267 21.995 33.408C22.411 33.5787 22.7683 33.8347 23.067 34.176C23.3657 34.5173 23.5203 34.9707 23.531 35.536C23.531 36.0373 23.3923 36.4853 23.115 36.88C22.8377 37.2747 22.443 37.584 21.931 37.808C21.4297 38.032 20.8377 38.144 20.155 38.144ZM29.5819 38.144C28.8885 38.144 28.2645 38.0213 27.7099 37.776C27.1659 37.52 26.7339 37.1787 26.4139 36.752C26.0939 36.3147 25.9232 35.8293 25.9019 35.296H27.7899C27.8219 35.6693 27.9979 35.984 28.3179 36.24C28.6485 36.4853 29.0592 36.608 29.5499 36.608C30.0619 36.608 30.4565 36.512 30.7339 36.32C31.0219 36.1173 31.1659 35.8613 31.1659 35.552C31.1659 35.2213 31.0059 34.976 30.6859 34.816C30.3765 34.656 29.8805 34.48 29.1979 34.288C28.5365 34.1067 27.9979 33.9307 27.5819 33.76C27.1659 33.5893 26.8032 33.328 26.4939 32.976C26.1952 32.624 26.0459 32.16 26.0459 31.584C26.0459 31.1147 26.1845 30.688 26.4619 30.304C26.7392 29.9093 27.1339 29.6 27.6459 29.376C28.1685 29.152 28.7659 29.04 29.4379 29.04C30.4405 29.04 31.2459 29.296 31.8539 29.808C32.4725 30.3093 32.8032 30.9973 32.8459 31.872H31.0219C30.9899 31.4773 30.8299 31.1627 30.5419 30.928C30.2539 30.6933 29.8645 30.576 29.3739 30.576C28.8939 30.576 28.5259 30.6667 28.2699 30.848C28.0139 31.0293 27.8859 31.2693 27.8859 31.568C27.8859 31.8027 27.9712 32 28.1419 32.16C28.3125 32.32 28.5205 32.448 28.7659 32.544C29.0112 32.6293 29.3739 32.7413 29.8539 32.88C30.4939 33.0507 31.0165 33.2267 31.4219 33.408C31.8379 33.5787 32.1952 33.8347 32.4939 34.176C32.7925 34.5173 32.9472 34.9707 32.9579 35.536C32.9579 36.0373 32.8192 36.4853 32.5419 36.88C32.2645 37.2747 31.8699 37.584 31.3579 37.808C30.8565 38.032 30.2645 38.144 29.5819 38.144ZM43.8888 33.376C43.8888 33.7067 43.8674 34.0053 43.8247 34.272H37.0887C37.1421 34.976 37.4034 35.5413 37.8727 35.968C38.3421 36.3947 38.9181 36.608 39.6007 36.608C40.5821 36.608 41.2754 36.1973 41.6807 35.376H43.6487C43.3821 36.1867 42.8967 36.8533 42.1927 37.376C41.4994 37.888 40.6354 38.144 39.6007 38.144C38.7581 38.144 38.0007 37.9573 37.3287 37.584C36.6674 37.2 36.1447 36.6667 35.7607 35.984C35.3874 35.2907 35.2007 34.4907 35.2007 33.584C35.2007 32.6773 35.3821 31.8827 35.7447 31.2C36.1181 30.5067 36.6354 29.9733 37.2967 29.6C37.9687 29.2267 38.7367 29.04 39.6007 29.04C40.4327 29.04 41.1741 29.2213 41.8247 29.584C42.4754 29.9467 42.9821 30.4587 43.3447 31.12C43.7074 31.7707 43.8888 32.5227 43.8888 33.376ZM41.9847 32.8C41.9741 32.128 41.7341 31.5893 41.2647 31.184C40.7954 30.7787 40.2141 30.576 39.5207 30.576C38.8914 30.576 38.3527 30.7787 37.9047 31.184C37.4567 31.5787 37.1901 32.1173 37.1047 32.8H41.9847ZM51.0118 29.04C51.7051 29.04 52.3238 29.184 52.8678 29.472C53.4224 29.76 53.8544 30.1867 54.1638 30.752C54.4731 31.3173 54.6278 32 54.6278 32.8V38H52.8198V33.072C52.8198 32.2827 52.6224 31.68 52.2278 31.264C51.8331 30.8373 51.2944 30.624 50.6118 30.624C49.9291 30.624 49.3851 30.8373 48.9798 31.264C48.5851 31.68 48.3878 32.2827 48.3878 33.072V38H46.5638V29.184H48.3878V30.192C48.6864 29.8293 49.0651 29.5467 49.5238 29.344C49.9931 29.1413 50.4891 29.04 51.0118 29.04ZM57.2264 33.584C57.2264 32.6773 57.4077 31.8827 57.7704 31.2C58.1437 30.5067 58.6557 29.9733 59.3064 29.6C59.957 29.2267 60.7037 29.04 61.5464 29.04C62.613 29.04 63.493 29.296 64.1864 29.808C64.8904 30.3093 65.365 31.0293 65.6104 31.968H63.6424C63.4824 31.5307 63.2264 31.1893 62.8744 30.944C62.5224 30.6987 62.0797 30.576 61.5464 30.576C60.7997 30.576 60.2024 30.8427 59.7544 31.376C59.317 31.8987 59.0984 32.6347 59.0984 33.584C59.0984 34.5333 59.317 35.2747 59.7544 35.808C60.2024 36.3413 60.7997 36.608 61.5464 36.608C62.6024 36.608 63.301 36.144 63.6424 35.216H65.6104C65.3544 36.112 64.8744 36.8267 64.1704 37.36C63.4664 37.8827 62.5917 38.144 61.5464 38.144C60.7037 38.144 59.957 37.9573 59.3064 37.584C58.6557 37.2 58.1437 36.6667 57.7704 35.984C57.4077 35.2907 57.2264 34.4907 57.2264 33.584ZM76.3881 33.376C76.3881 33.7067 76.3668 34.0053 76.3241 34.272H69.5881C69.6415 34.976 69.9028 35.5413 70.3721 35.968C70.8415 36.3947 71.4175 36.608 72.1001 36.608C73.0815 36.608 73.7748 36.1973 74.1801 35.376H76.1481C75.8815 36.1867 75.3961 36.8533 74.6921 37.376C73.9988 37.888 73.1348 38.144 72.1001 38.144C71.2575 38.144 70.5001 37.9573 69.8281 37.584C69.1668 37.2 68.6441 36.6667 68.2601 35.984C67.8868 35.2907 67.7001 34.4907 67.7001 33.584C67.7001 32.6773 67.8815 31.8827 68.2441 31.2C68.6175 30.5067 69.1348 29.9733 69.7961 29.6C70.4681 29.2267 71.2361 29.04 72.1001 29.04C72.9321 29.04 73.6735 29.2213 74.3241 29.584C74.9748 29.9467 75.4815 30.4587 75.8441 31.12C76.2068 31.7707 76.3881 32.5227 76.3881 33.376ZM74.4841 32.8C74.4735 32.128 74.2335 31.5893 73.7641 31.184C73.2948 30.7787 72.7135 30.576 72.0201 30.576C71.3908 30.576 70.8521 30.7787 70.4041 31.184C69.9561 31.5787 69.6895 32.1173 69.6041 32.8H74.4841Z" fill="#296544"/>
<path d="M8.24469 20.9557C8.14545 21.6428 7.55762 23.4979 7.55762 25.4217L7.92348 24.9264L8.58378 24.391L11.68 22.6734L15.0009 21.2948L17.0026 20.1392L18.3232 19.1488L19.7646 17.8639L21.2532 15.8027L22.4442 14.085L23.6351 10.9931L24.2306 8.24486L24.7344 5.49657L25.4215 2.40475L25.4215 0.990454L25.1238 0L24.9263 0.990454L24.0228 2.40475L21.6426 4.12243L19.7646 5.49657L17.9782 6.87072L16.4895 7.90133L15.0009 9.27547L13.5122 10.9931L12.3213 12.7108L11.1304 14.4285L9.2753 17.8639L8.24469 20.9557Z" fill="url(#paint0_linear_1000_3476)"/>
<path d="M7.43165 20.9557C7.47364 21.6428 7.55762 23.4979 7.55762 25.4217L6.9278 24.391L6.42395 23.704L5.54221 22.6734L5.03835 21.9863L4.40854 20.9557L3.65276 19.9251L3.14891 18.8945L2.51909 17.5203L1.76331 15.8027L1.25946 14.085L0.755607 10.9931L0.503681 8.24486L0.290512 5.49657L-0.000172138 2.40475V1.37414L0.125791 0L0.14517 1.03061L0.581196 2.40475L1.59859 4.12243L2.39313 5.49657L3.14891 6.87072L3.77872 7.90133L4.40854 9.27547L5.03835 10.9931L5.54221 12.7108L6.04606 14.4285L6.9278 17.8639L7.43165 20.9557Z" fill="url(#paint1_linear_1000_3476)"/>
<defs>
<linearGradient id="paint0_linear_1000_3476" x1="16.4895" y1="0" x2="16.4895" y2="25.4217" gradientUnits="userSpaceOnUse">
<stop stop-color="#3DBC9F"/>
<stop offset="0.0001" stop-color="#4B9744"/>
<stop offset="0.140625" stop-color="#91C598"/>
<stop offset="1" stop-color="#D8F3ED"/>
</linearGradient>
<linearGradient id="paint1_linear_1000_3476" x1="3.77872" y1="0" x2="3.77872" y2="25.4217" gradientUnits="userSpaceOnUse">
<stop stop-color="#FAFAFA"/>
<stop offset="1" stop-color="#D8F3ED"/>
</linearGradient>
</defs>
</svg>
