<svg width="77" height="64" viewBox="0 0 77 64" fill="none" xmlns="http://www.w3.org/2000/svg">
<path d="M26.175 36.625V54H23.325V42.1L18.025 54H16.05L10.725 42.1V54H7.875V36.625H10.95L17.05 50.25L23.125 36.625H26.175ZM30.3459 47.05C30.3459 45.6667 30.6292 44.4417 31.1959 43.375C31.7792 42.3083 32.5626 41.4833 33.5459 40.9C34.5459 40.3 35.6459 40 36.8459 40C37.9292 40 38.8709 40.2167 39.6709 40.65C40.4876 41.0667 41.1376 41.5917 41.6209 42.225V40.225H44.4959V54H41.6209V51.95C41.1376 52.6 40.4792 53.1417 39.6459 53.575C38.8126 54.0083 37.8626 54.225 36.7959 54.225C35.6126 54.225 34.5292 53.925 33.5459 53.325C32.5626 52.7083 31.7792 51.8583 31.1959 50.775C30.6292 49.675 30.3459 48.4333 30.3459 47.05ZM41.6209 47.1C41.6209 46.15 41.4209 45.325 41.0209 44.625C40.6376 43.925 40.1292 43.3917 39.4959 43.025C38.8626 42.6583 38.1792 42.475 37.4459 42.475C36.7126 42.475 36.0292 42.6583 35.3959 43.025C34.7626 43.375 34.2459 43.9 33.8459 44.6C33.4626 45.2833 33.2709 46.1 33.2709 47.05C33.2709 48 33.4626 48.8333 33.8459 49.55C34.2459 50.2667 34.7626 50.8167 35.3959 51.2C36.0459 51.5667 36.7292 51.75 37.4459 51.75C38.1792 51.75 38.8626 51.5667 39.4959 51.2C40.1292 50.8333 40.6376 50.3 41.0209 49.6C41.4209 48.8833 41.6209 48.05 41.6209 47.1ZM54.6143 54.225C53.5309 54.225 52.5559 54.0333 51.6893 53.65C50.8393 53.25 50.1643 52.7167 49.6643 52.05C49.1643 51.3667 48.8976 50.6083 48.8643 49.775H51.8143C51.8643 50.3583 52.1393 50.85 52.6393 51.25C53.1559 51.6333 53.7976 51.825 54.5643 51.825C55.3643 51.825 55.9809 51.675 56.4143 51.375C56.8643 51.0583 57.0893 50.6583 57.0893 50.175C57.0893 49.6583 56.8393 49.275 56.3393 49.025C55.8559 48.775 55.0809 48.5 54.0143 48.2C52.9809 47.9167 52.1393 47.6417 51.4893 47.375C50.8393 47.1083 50.2726 46.7 49.7893 46.15C49.3226 45.6 49.0893 44.875 49.0893 43.975C49.0893 43.2417 49.3059 42.575 49.7393 41.975C50.1726 41.3583 50.7893 40.875 51.5893 40.525C52.4059 40.175 53.3393 40 54.3893 40C55.9559 40 57.2143 40.4 58.1643 41.2C59.1309 41.9833 59.6476 43.0583 59.7143 44.425H56.8643C56.8143 43.8083 56.5643 43.3167 56.1143 42.95C55.6643 42.5833 55.0559 42.4 54.2893 42.4C53.5393 42.4 52.9643 42.5417 52.5643 42.825C52.1643 43.1083 51.9643 43.4833 51.9643 43.95C51.9643 44.3167 52.0976 44.625 52.3643 44.875C52.6309 45.125 52.9559 45.325 53.3393 45.475C53.7226 45.6083 54.2893 45.7833 55.0393 46C56.0393 46.2667 56.8559 46.5417 57.4893 46.825C58.1393 47.0917 58.6976 47.4917 59.1643 48.025C59.6309 48.5583 59.8726 49.2667 59.8893 50.15C59.8893 50.9333 59.6726 51.6333 59.2393 52.25C58.8059 52.8667 58.1893 53.35 57.3893 53.7C56.6059 54.05 55.6809 54.225 54.6143 54.225ZM69.7938 47.125L76.1438 54H72.2938L67.1938 48.075V54H64.3438V35.5H67.1938V46.25L72.1938 40.225H76.1438L69.7938 47.125Z" fill="#296544"/>
<path d="M12 30.5C11.8556 31.5 11 34.2 11 37L11.5325 36.2792L12.4935 35.5L17 33L21.8333 30.9935L24.7468 29.3117L26.6688 27.8701L28.7667 26L30.9333 23L32.6667 20.5L34.4 16L35.2667 12L36 7.99998L37 3.49998L37 1.44154L36.5667 -1.52588e-05L36.2792 1.44154L34.9643 3.49998L31.5 5.99998L28.7667 7.99998L26.1667 9.99998L24 11.5L21.8333 13.5L19.6667 16L17.9333 18.5L16.2 21L13.5 26L12 30.5Z" fill="url(#paint0_linear_1311_3589)"/>
<path d="M10.8167 30.5C10.8778 31.5 11 34.2 11 37L10.0833 35.5L9.35 34.5L8.06667 33L7.33334 32L6.41667 30.5L5.31667 29L4.58334 27.5L3.66667 25.5L2.56667 23L1.83334 20.5L1.10001 16L0.733339 12L0.423083 7.99998L6.67572e-06 3.49998V1.99998L0.183339 -1.52588e-05L0.211545 1.49998L0.846159 3.49998L2.32693 5.99998L3.48334 7.99998L4.58334 9.99998L5.5 11.5L6.41667 13.5L7.33334 16L8.06667 18.5L8.8 21L10.0833 26L10.8167 30.5Z" fill="url(#paint1_linear_1311_3589)"/>
<defs>
<linearGradient id="paint0_linear_1311_3589" x1="24" y1="-1.52588e-05" x2="24" y2="37" gradientUnits="userSpaceOnUse">
<stop stop-color="#3DBC9F"/>
<stop offset="0.0001" stop-color="#4B9744"/>
<stop offset="0.140625" stop-color="#91C598"/>
<stop offset="1" stop-color="#D8F3ED"/>
</linearGradient>
<linearGradient id="paint1_linear_1311_3589" x1="5.5" y1="-1.52588e-05" x2="5.5" y2="37" gradientUnits="userSpaceOnUse">
<stop stop-color="#FAFAFA"/>
<stop offset="1" stop-color="#D8F3ED"/>
</linearGradient>
</defs>
</svg>
