<svg width="61" height="44" viewBox="0 0 61 44" fill="none" xmlns="http://www.w3.org/2000/svg">
<path d="M9.4 38.144C8.70667 38.144 8.08267 38.0213 7.528 37.776C6.984 37.52 6.552 37.1787 6.232 36.752C5.912 36.3147 5.74133 35.8293 5.72 35.296H7.608C7.64 35.6693 7.816 35.984 8.136 36.24C8.46667 36.4853 8.87733 36.608 9.368 36.608C9.88 36.608 10.2747 36.512 10.552 36.32C10.84 36.1173 10.984 35.8613 10.984 35.552C10.984 35.2213 10.824 34.976 10.504 34.816C10.1947 34.656 9.69867 34.48 9.016 34.288C8.35467 34.1067 7.816 33.9307 7.4 33.76C6.984 33.5893 6.62133 33.328 6.312 32.976C6.01333 32.624 5.864 32.16 5.864 31.584C5.864 31.1147 6.00267 30.688 6.28 30.304C6.55733 29.9093 6.952 29.6 7.464 29.376C7.98667 29.152 8.584 29.04 9.256 29.04C10.2587 29.04 11.064 29.296 11.672 29.808C12.2907 30.3093 12.6213 30.9973 12.664 31.872H10.84C10.808 31.4773 10.648 31.1627 10.36 30.928C10.072 30.6933 9.68267 30.576 9.192 30.576C8.712 30.576 8.344 30.6667 8.088 30.848C7.832 31.0293 7.704 31.2693 7.704 31.568C7.704 31.8027 7.78933 32 7.96 32.16C8.13067 32.32 8.33867 32.448 8.584 32.544C8.82933 32.6293 9.192 32.7413 9.672 32.88C10.312 33.0507 10.8347 33.2267 11.24 33.408C11.656 33.5787 12.0133 33.8347 12.312 34.176C12.6107 34.5173 12.7653 34.9707 12.776 35.536C12.776 36.0373 12.6373 36.4853 12.36 36.88C12.0827 37.2747 11.688 37.584 11.176 37.808C10.6747 38.032 10.0827 38.144 9.4 38.144ZM23.7069 33.376C23.7069 33.7067 23.6855 34.0053 23.6429 34.272H16.9069C16.9602 34.976 17.2215 35.5413 17.6909 35.968C18.1602 36.3947 18.7362 36.608 19.4189 36.608C20.4002 36.608 21.0935 36.1973 21.4989 35.376H23.4669C23.2002 36.1867 22.7149 36.8533 22.0109 37.376C21.3175 37.888 20.4535 38.144 19.4189 38.144C18.5762 38.144 17.8189 37.9573 17.1469 37.584C16.4855 37.2 15.9629 36.6667 15.5789 35.984C15.2055 35.2907 15.0189 34.4907 15.0189 33.584C15.0189 32.6773 15.2002 31.8827 15.5629 31.2C15.9362 30.5067 16.4535 29.9733 17.1149 29.6C17.7869 29.2267 18.5549 29.04 19.4189 29.04C20.2509 29.04 20.9922 29.2213 21.6429 29.584C22.2935 29.9467 22.8002 30.4587 23.1629 31.12C23.5255 31.7707 23.7069 32.5227 23.7069 33.376ZM21.8029 32.8C21.7922 32.128 21.5522 31.5893 21.0829 31.184C20.6135 30.7787 20.0322 30.576 19.3389 30.576C18.7095 30.576 18.1709 30.7787 17.7229 31.184C17.2749 31.5787 17.0082 32.1173 16.9229 32.8H21.8029ZM28.2059 30.464C28.4725 30.016 28.8245 29.6693 29.2619 29.424C29.7099 29.168 30.2379 29.04 30.8459 29.04V30.928H30.3819C29.6672 30.928 29.1232 31.1093 28.7499 31.472C28.3872 31.8347 28.2059 32.464 28.2059 33.36V38H26.3819V29.184H28.2059V30.464ZM41.3865 29.184V38H39.5625V36.96C39.2745 37.3227 38.8958 37.6107 38.4265 37.824C37.9678 38.0267 37.4772 38.128 36.9545 38.128C36.2612 38.128 35.6372 37.984 35.0825 37.696C34.5385 37.408 34.1065 36.9813 33.7865 36.416C33.4772 35.8507 33.3225 35.168 33.3225 34.368V29.184H35.1305V34.096C35.1305 34.8853 35.3278 35.4933 35.7225 35.92C36.1172 36.336 36.6558 36.544 37.3385 36.544C38.0212 36.544 38.5598 36.336 38.9545 35.92C39.3598 35.4933 39.5625 34.8853 39.5625 34.096V29.184H41.3865ZM55.3451 29.04C56.0385 29.04 56.6571 29.184 57.2011 29.472C57.7558 29.76 58.1878 30.1867 58.4971 30.752C58.8171 31.3173 58.9771 32 58.9771 32.8V38H57.1691V33.072C57.1691 32.2827 56.9718 31.68 56.5771 31.264C56.1825 30.8373 55.6438 30.624 54.9611 30.624C54.2785 30.624 53.7345 30.8373 53.3291 31.264C52.9345 31.68 52.7371 32.2827 52.7371 33.072V38H50.9291V33.072C50.9291 32.2827 50.7318 31.68 50.3371 31.264C49.9425 30.8373 49.4038 30.624 48.7211 30.624C48.0385 30.624 47.4945 30.8373 47.0891 31.264C46.6945 31.68 46.4971 32.2827 46.4971 33.072V38H44.6731V29.184H46.4971V30.192C46.7958 29.8293 47.1745 29.5467 47.6331 29.344C48.0918 29.1413 48.5825 29.04 49.1051 29.04C49.8091 29.04 50.4385 29.1893 50.9931 29.488C51.5478 29.7867 51.9745 30.2187 52.2731 30.784C52.5398 30.2507 52.9558 29.8293 53.5211 29.52C54.0865 29.2 54.6945 29.04 55.3451 29.04Z" fill="#296544"/>
<path d="M8.24469 20.9557C8.14545 21.6428 7.55762 23.4979 7.55762 25.4217L7.92348 24.9264L8.58378 24.391L11.68 22.6734L15.0009 21.2948L17.0026 20.1392L18.3232 19.1488L19.7646 17.8639L21.2532 15.8027L22.4442 14.085L23.6351 10.9931L24.2306 8.24486L24.7344 5.49657L25.4215 2.40475L25.4215 0.990454L25.1238 0L24.9263 0.990454L24.0228 2.40475L21.6426 4.12243L19.7646 5.49657L17.9782 6.87072L16.4895 7.90133L15.0009 9.27547L13.5122 10.9931L12.3213 12.7108L11.1304 14.4285L9.2753 17.8639L8.24469 20.9557Z" fill="url(#paint0_linear_962_6746)"/>
<path d="M7.43165 20.9557C7.47364 21.6428 7.55762 23.4979 7.55762 25.4217L6.9278 24.391L6.42395 23.704L5.54221 22.6734L5.03835 21.9863L4.40854 20.9557L3.65276 19.9251L3.14891 18.8945L2.51909 17.5203L1.76331 15.8027L1.25946 14.085L0.755607 10.9931L0.503681 8.24486L0.290512 5.49657L-0.000172138 2.40475V1.37414L0.125791 0L0.14517 1.03061L0.581196 2.40475L1.59859 4.12243L2.39313 5.49657L3.14891 6.87072L3.77872 7.90133L4.40854 9.27547L5.03835 10.9931L5.54221 12.7108L6.04606 14.4285L6.9278 17.8639L7.43165 20.9557Z" fill="url(#paint1_linear_962_6746)"/>
<defs>
<linearGradient id="paint0_linear_962_6746" x1="16.4895" y1="0" x2="16.4895" y2="25.4217" gradientUnits="userSpaceOnUse">
<stop stop-color="#3DBC9F"/>
<stop offset="0.0001" stop-color="#4B9744"/>
<stop offset="0.140625" stop-color="#91C598"/>
<stop offset="1" stop-color="#D8F3ED"/>
</linearGradient>
<linearGradient id="paint1_linear_962_6746" x1="3.77872" y1="0" x2="3.77872" y2="25.4217" gradientUnits="userSpaceOnUse">
<stop stop-color="#FAFAFA"/>
<stop offset="1" stop-color="#D8F3ED"/>
</linearGradient>
</defs>
</svg>
