<svg width="94" height="54" viewBox="0 0 94 54" fill="none" xmlns="http://www.w3.org/2000/svg">
<path d="M18.8285 33.1817L14.3318 45.4423H11.3457L6.84894 33.1817H9.48374L12.8563 42.9304L16.2112 33.1817H18.8285ZM25.994 45.5652C24.8464 45.5652 23.7925 45.2959 22.8323 44.7572C21.872 44.2185 21.1109 43.4749 20.5488 42.5264C19.9867 41.5662 19.7056 40.483 19.7056 39.2768C19.7056 38.0824 19.9867 37.0109 20.5488 36.0624C21.1109 35.1022 21.872 34.3527 22.8323 33.814C23.7925 33.2754 24.8464 33.006 25.994 33.006C27.1533 33.006 28.2073 33.2754 29.1558 33.814C30.116 34.3527 30.8713 35.1022 31.4217 36.0624C31.9838 37.0109 32.2648 38.0824 32.2648 39.2768C32.2648 40.483 31.9838 41.5662 31.4217 42.5264C30.8713 43.4749 30.116 44.2185 29.1558 44.7572C28.1955 45.2959 27.1416 45.5652 25.994 45.5652ZM25.994 43.3696C26.7318 43.3696 27.3817 43.2056 27.9438 42.8777C28.5059 42.5381 28.945 42.058 29.2612 41.4374C29.5773 40.8167 29.7354 40.0966 29.7354 39.2768C29.7354 38.4571 29.5773 37.7428 29.2612 37.1339C28.945 36.5132 28.5059 36.039 27.9438 35.7111C27.3817 35.3832 26.7318 35.2193 25.994 35.2193C25.2563 35.2193 24.6005 35.3832 24.0267 35.7111C23.4646 36.039 23.0255 36.5132 22.7093 37.1339C22.3931 37.7428 22.235 38.4571 22.235 39.2768C22.235 40.0966 22.3931 40.8167 22.7093 41.4374C23.0255 42.058 23.4646 42.5381 24.0267 42.8777C24.6005 43.2056 25.2563 43.3696 25.994 43.3696ZM36.7687 35.7572C37.1114 35.1814 37.5638 34.7359 38.1259 34.4206C38.7016 34.0916 39.3802 33.9271 40.1616 33.9271V36.3535H39.5653C38.6468 36.3535 37.9477 36.5866 37.4679 37.0526C37.0018 37.5187 36.7687 38.3275 36.7687 39.4791V45.4423H34.4246V34.1122H36.7687V35.7572ZM46.4289 45.6273C45.5378 45.6273 44.7359 45.4697 44.0231 45.1544C43.3239 44.8254 42.7687 44.3867 42.3575 43.8384C41.9462 43.2763 41.7269 42.6526 41.6995 41.9672H44.1259C44.167 42.4469 44.3932 42.8514 44.8044 43.1804C45.2294 43.4957 45.7572 43.6533 46.3878 43.6533C47.0458 43.6533 47.553 43.5299 47.9094 43.2832C48.2795 43.0227 48.4646 42.6937 48.4646 42.2962C48.4646 41.8712 48.259 41.5559 47.8477 41.3503C47.4502 41.1446 46.8127 40.9184 45.9354 40.6717C45.0855 40.4387 44.3932 40.2125 43.8586 39.9931C43.3239 39.7738 42.8578 39.4379 42.4603 38.9855C42.0764 38.5332 41.8845 37.9368 41.8845 37.1966C41.8845 36.5934 42.0627 36.0451 42.4192 35.5516C42.7756 35.0443 43.2828 34.6468 43.9408 34.3589C44.6125 34.071 45.3802 33.9271 46.2438 33.9271C47.5324 33.9271 48.5674 34.2561 49.3488 34.9141C50.1439 35.5584 50.5689 36.4426 50.6237 37.5667H48.2795C48.2384 37.0595 48.0328 36.6551 47.6627 36.3535C47.2925 36.0519 46.7922 35.9011 46.1616 35.9011C45.5447 35.9011 45.0718 36.0177 44.7428 36.2507C44.4137 36.4837 44.2492 36.7922 44.2492 37.176C44.2492 37.4776 44.3589 37.7312 44.5782 37.9368C44.7976 38.1425 45.0649 38.307 45.3802 38.4304C45.6955 38.54 46.1616 38.684 46.7785 38.8622C47.601 39.0815 48.2727 39.3077 48.7936 39.5407C49.3283 39.7601 49.7875 40.0891 50.1713 40.5278C50.5552 40.9664 50.7539 41.549 50.7676 42.2756C50.7676 42.9199 50.5894 43.4957 50.233 44.0029C49.8766 44.5101 49.3694 44.9076 48.7114 45.1955C48.0671 45.4834 47.3062 45.6273 46.4289 45.6273ZM57.7832 39.7875L63.0062 45.4423H59.8395L55.6447 40.5689V45.4423H53.3006V30.2258H55.6447V39.0678L59.7573 34.1122H63.0062L57.7832 39.7875ZM65.879 32.6111C65.4541 32.6111 65.0977 32.4671 64.8098 32.1793C64.5219 31.8914 64.378 31.535 64.378 31.11C64.378 30.685 64.5219 30.3286 64.8098 30.0407C65.0977 29.7529 65.4541 29.6089 65.879 29.6089C66.2903 29.6089 66.6399 29.7529 66.9277 30.0407C67.2156 30.3286 67.3596 30.685 67.3596 31.11C67.3596 31.535 67.2156 31.8914 66.9277 32.1793C66.6399 32.4671 66.2903 32.6111 65.879 32.6111ZM67.0306 34.1122V45.4423H64.6864V34.1122H67.0306ZM75.8247 33.9271C76.7157 33.9271 77.5108 34.1122 78.21 34.4823C78.9228 34.8524 79.478 35.4008 79.8755 36.1273C80.2731 36.8539 80.4719 37.7312 80.4719 38.7594V45.4423H78.1483V39.1089C78.1483 38.0945 77.8947 37.32 77.3874 36.7853C76.8802 36.237 76.188 35.9628 75.3106 35.9628C74.4333 35.9628 73.7341 36.237 73.2132 36.7853C72.706 37.32 72.4524 38.0945 72.4524 39.1089V45.4423H70.1082V34.1122H72.4524V35.4076C72.8362 34.9415 73.3229 34.5783 73.9123 34.3178C74.5155 34.0573 75.153 33.9271 75.8247 33.9271ZM87.5745 45.6273C86.6835 45.6273 85.8815 45.4697 85.1687 45.1544C84.4696 44.8254 83.9144 44.3867 83.5031 43.8384C83.0919 43.2763 82.8725 42.6526 82.8451 41.9672H85.2715C85.3126 42.4469 85.5388 42.8514 85.9501 43.1804C86.375 43.4957 86.9028 43.6533 87.5334 43.6533C88.1914 43.6533 88.6986 43.5299 89.0551 43.2832C89.4252 43.0227 89.6103 42.6937 89.6103 42.2962C89.6103 41.8712 89.4046 41.5559 88.9934 41.3503C88.5958 41.1446 87.9584 40.9184 87.081 40.6717C86.2311 40.4387 85.5388 40.2125 85.0042 39.9931C84.4696 39.7738 84.0035 39.4379 83.6059 38.9855C83.2221 38.5332 83.0302 37.9368 83.0302 37.1966C83.0302 36.5934 83.2084 36.0451 83.5648 35.5516C83.9212 35.0443 84.4284 34.6468 85.0864 34.3589C85.7582 34.071 86.5258 33.9271 87.3895 33.9271C88.6781 33.9271 89.7131 34.2561 90.4945 34.9141C91.2896 35.5584 91.7145 36.4426 91.7693 37.5667H89.4252C89.3841 37.0595 89.1784 36.6551 88.8083 36.3535C88.4382 36.0519 87.9378 35.9011 87.3072 35.9011C86.6903 35.9011 86.2174 36.0177 85.8884 36.2507C85.5594 36.4837 85.3949 36.7922 85.3949 37.176C85.3949 37.4776 85.5046 37.7312 85.7239 37.9368C85.9432 38.1425 86.2105 38.307 86.5258 38.4304C86.8411 38.54 87.3072 38.684 87.9241 38.8622C88.7466 39.0815 89.4183 39.3077 89.9393 39.5407C90.4739 39.7601 90.9331 40.0891 91.317 40.5278C91.7008 40.9664 91.8996 41.549 91.9133 42.2756C91.9133 42.9199 91.7351 43.4957 91.3787 44.0029C91.0222 44.5101 90.515 44.9076 89.857 45.1955C89.2127 45.4834 88.4519 45.6273 87.5745 45.6273Z" fill="white"/>
<path d="M8.24469 20.9557C8.14545 21.6428 7.55762 23.4979 7.55762 25.4217L7.92348 24.9264L8.58378 24.391L11.68 22.6734L15.0009 21.2948L17.0026 20.1392L18.3232 19.1488L19.7646 17.8639L21.2532 15.8027L22.4442 14.085L23.6351 10.9931L24.2306 8.24486L24.7344 5.49657L25.4215 2.40475L25.4215 0.990454L25.1238 0L24.9263 0.990454L24.0228 2.40475L21.6426 4.12243L19.7646 5.49657L17.9782 6.87072L16.4895 7.90133L15.0009 9.27547L13.5122 10.9931L12.3213 12.7108L11.1304 14.4285L9.2753 17.8639L8.24469 20.9557Z" fill="url(#paint0_linear_826_2570)"/>
<path d="M7.43165 20.9557C7.47364 21.6428 7.55762 23.4979 7.55762 25.4217L6.9278 24.391L6.42395 23.704L5.54221 22.6734L5.03835 21.9863L4.40854 20.9557L3.65276 19.9251L3.14891 18.8945L2.51909 17.5203L1.76331 15.8027L1.25946 14.085L0.755607 10.9931L0.503681 8.24486L0.290512 5.49657L-0.000172138 2.40475V1.37414L0.125791 0L0.14517 1.03061L0.581196 2.40475L1.59859 4.12243L2.39313 5.49657L3.14891 6.87072L3.77872 7.90133L4.40854 9.27547L5.03835 10.9931L5.54221 12.7108L6.04606 14.4285L6.9278 17.8639L7.43165 20.9557Z" fill="url(#paint1_linear_826_2570)"/>
<defs>
<linearGradient id="paint0_linear_826_2570" x1="16.4895" y1="0" x2="16.4895" y2="25.4217" gradientUnits="userSpaceOnUse">
<stop stop-color="#3DBC9F"/>
<stop offset="0.0001" stop-color="#4B9744"/>
<stop offset="0.140625" stop-color="#91C598"/>
<stop offset="1" stop-color="#D8F3ED"/>
</linearGradient>
<linearGradient id="paint1_linear_826_2570" x1="3.77872" y1="0" x2="3.77872" y2="25.4217" gradientUnits="userSpaceOnUse">
<stop stop-color="#FAFAFA"/>
<stop offset="1" stop-color="#D8F3ED"/>
</linearGradient>
</defs>
</svg>
