<svg width="37" height="37" viewBox="0 0 37 37" fill="none" xmlns="http://www.w3.org/2000/svg">
<path d="M12 30.5C11.8556 31.5 11 34.2 11 37L11.5325 36.2792L12.4935 35.5L17 33L21.8333 30.9935L24.7468 29.3117L26.6688 27.8701L28.7667 26L30.9333 23L32.6667 20.5L34.4 16L35.2667 12L36 8L37 3.5L37 1.44156L36.5667 0L36.2792 1.44156L34.9643 3.5L31.5 6L28.7667 8L26.1667 10L24 11.5L21.8333 13.5L19.6667 16L17.9333 18.5L16.2 21L13.5 26L12 30.5Z" fill="url(#paint0_linear_1104_3887)"/>
<path d="M10.8167 30.5C10.8778 31.5 11 34.2 11 37L10.0833 35.5L9.35 34.5L8.06667 33L7.33334 32L6.41667 30.5L5.31667 29L4.58334 27.5L3.66667 25.5L2.56667 23L1.83334 20.5L1.10001 16L0.733339 12L0.423083 8L6.67572e-06 3.5V2L0.183339 0L0.211545 1.5L0.846159 3.5L2.32693 6L3.48334 8L4.58334 9.99999L5.5 11.5L6.41667 13.5L7.33334 16L8.06667 18.5L8.8 21L10.0833 26L10.8167 30.5Z" fill="url(#paint1_linear_1104_3887)"/>
<defs>
<linearGradient id="paint0_linear_1104_3887" x1="24" y1="0" x2="24" y2="37" gradientUnits="userSpaceOnUse">
<stop stop-color="#3DBC9F"/>
<stop offset="0.0001" stop-color="#4B9744"/>
<stop offset="0.140625" stop-color="#91C598"/>
<stop offset="1" stop-color="#D8F3ED"/>
</linearGradient>
<linearGradient id="paint1_linear_1104_3887" x1="5.5" y1="0" x2="5.5" y2="37" gradientUnits="userSpaceOnUse">
<stop stop-color="#FAFAFA"/>
<stop offset="1" stop-color="#D8F3ED"/>
</linearGradient>
</defs>
</svg>
