<svg width="61" height="61" viewBox="0 0 61 61" fill="none" xmlns="http://www.w3.org/2000/svg">
<g filter="url(#filter0_d_1057_4050)">
<path d="M10.625 53C8.86794 53 7.18285 52.302 5.94042 51.0596C4.69799 49.8172 4 48.1321 4 46.375V6.625C4 4.86794 4.69799 3.18285 5.94042 1.94042C7.18285 0.697989 8.86794 0 10.625 0L50.375 0C52.1321 0 53.8172 0.697989 55.0596 1.94042C56.302 3.18285 57 4.86794 57 6.625V46.375C57 48.1321 56.302 49.8172 55.0596 51.0596C53.8172 52.302 52.1321 53 50.375 53H10.625ZM32.1562 38.0938V18.9044L39.2649 26.0164C39.4189 26.1704 39.6017 26.2925 39.8029 26.3759C40.0041 26.4592 40.2197 26.5021 40.4375 26.5021C40.6553 26.5021 40.8709 26.4592 41.0721 26.3759C41.2733 26.2925 41.4561 26.1704 41.6101 26.0164C41.7641 25.8624 41.8863 25.6796 41.9696 25.4784C42.0529 25.2772 42.0958 25.0615 42.0958 24.8438C42.0958 24.626 42.0529 24.4103 41.9696 24.2091C41.8863 24.0079 41.7641 23.8251 41.6101 23.6711L31.6726 13.7336C31.5188 13.5794 31.336 13.457 31.1348 13.3735C30.9336 13.29 30.7179 13.247 30.5 13.247C30.2821 13.247 30.0664 13.29 29.8652 13.3735C29.664 13.457 29.4812 13.5794 29.3274 13.7336L19.3899 23.6711C19.0789 23.9821 18.9042 24.4039 18.9042 24.8438C18.9042 25.2836 19.0789 25.7054 19.3899 26.0164C19.7009 26.3274 20.1227 26.5021 20.5625 26.5021C21.0023 26.5021 21.4241 26.3274 21.7351 26.0164L28.8438 18.9044V38.0938C28.8438 38.533 29.0182 38.9543 29.3289 39.2649C29.6395 39.5755 30.0607 39.75 30.5 39.75C30.9393 39.75 31.3605 39.5755 31.6711 39.2649C31.9818 38.9543 32.1562 38.533 32.1562 38.0938Z" fill="#466B71"/>
</g>
<defs>
<filter id="filter0_d_1057_4050" x="2.38419e-07" y="0" width="61" height="61" filterUnits="userSpaceOnUse" color-interpolation-filters="sRGB">
<feFlood flood-opacity="0" result="BackgroundImageFix"/>
<feColorMatrix in="SourceAlpha" type="matrix" values="0 0 0 0 0 0 0 0 0 0 0 0 0 0 0 0 0 0 127 0" result="hardAlpha"/>
<feOffset dy="4"/>
<feGaussianBlur stdDeviation="2"/>
<feComposite in2="hardAlpha" operator="out"/>
<feColorMatrix type="matrix" values="0 0 0 0 0.286275 0 0 0 0 0.243137 0 0 0 0 0.513726 0 0 0 0.1237 0"/>
<feBlend mode="normal" in2="BackgroundImageFix" result="effect1_dropShadow_1057_4050"/>
<feBlend mode="normal" in="SourceGraphic" in2="effect1_dropShadow_1057_4050" result="shape"/>
</filter>
</defs>
</svg>
