<svg width="89" height="64" viewBox="0 0 89 64" fill="none" xmlns="http://www.w3.org/2000/svg">
<path d="M17.175 45.075C18.1083 45.2417 18.9 45.7333 19.55 46.55C20.2 47.3667 20.525 48.2917 20.525 49.325C20.525 50.2083 20.2917 51.0083 19.825 51.725C19.375 52.425 18.7167 52.9833 17.85 53.4C16.9833 53.8 15.975 54 14.825 54H7.875V36.625H14.5C15.6833 36.625 16.7 36.825 17.55 37.225C18.4 37.625 19.0417 38.1667 19.475 38.85C19.9083 39.5167 20.125 40.2667 20.125 41.1C20.125 42.1 19.8583 42.9333 19.325 43.6C18.7917 44.2667 18.075 44.7583 17.175 45.075ZM10.725 43.925H14.25C15.1833 43.925 15.9083 43.7167 16.425 43.3C16.9583 42.8667 17.225 42.25 17.225 41.45C17.225 40.6667 16.9583 40.0583 16.425 39.625C15.9083 39.175 15.1833 38.95 14.25 38.95H10.725V43.925ZM14.575 51.675C15.5417 51.675 16.3 51.4417 16.85 50.975C17.4 50.5083 17.675 49.8583 17.675 49.025C17.675 48.175 17.3833 47.5 16.8 47C16.2167 46.5 15.4417 46.25 14.475 46.25H10.725V51.675H14.575ZM37.4721 40.225V54H34.6221V52.375C34.1721 52.9417 33.5804 53.3917 32.8471 53.725C32.1304 54.0417 31.3637 54.2 30.5471 54.2C29.4637 54.2 28.4887 53.975 27.6221 53.525C26.7721 53.075 26.0971 52.4083 25.5971 51.525C25.1137 50.6417 24.8721 49.575 24.8721 48.325V40.225H27.6971V47.9C27.6971 49.1333 28.0054 50.0833 28.6221 50.75C29.2387 51.4 30.0804 51.725 31.1471 51.725C32.2137 51.725 33.0554 51.4 33.6721 50.75C34.3054 50.0833 34.6221 49.1333 34.6221 47.9V40.225H37.4721ZM45.9324 42.55V50.175C45.9324 50.6917 46.0491 51.0667 46.2824 51.3C46.5324 51.5167 46.9491 51.625 47.5324 51.625H49.2824V54H47.0324C45.7491 54 44.7658 53.7 44.0824 53.1C43.3991 52.5 43.0574 51.525 43.0574 50.175V42.55H41.4324V40.225H43.0574V36.8H45.9324V40.225H49.2824V42.55H45.9324ZM56.6092 42.55V50.175C56.6092 50.6917 56.7258 51.0667 56.9592 51.3C57.2092 51.5167 57.6258 51.625 58.2092 51.625H59.9592V54H57.7092C56.4258 54 55.4425 53.7 54.7592 53.1C54.0758 52.5 53.7342 51.525 53.7342 50.175V42.55H52.1092V40.225H53.7342V36.8H56.6092V40.225H59.9592V42.55H56.6092ZM76.5859 46.775C76.5859 47.2917 76.5526 47.7583 76.4859 48.175H65.9609C66.0443 49.275 66.4526 50.1583 67.1859 50.825C67.9193 51.4917 68.8193 51.825 69.8859 51.825C71.4193 51.825 72.5026 51.1833 73.1359 49.9H76.2109C75.7943 51.1667 75.0359 52.2083 73.9359 53.025C72.8526 53.825 71.5026 54.225 69.8859 54.225C68.5693 54.225 67.3859 53.9333 66.3359 53.35C65.3026 52.75 64.4859 51.9167 63.8859 50.85C63.3026 49.7667 63.0109 48.5167 63.0109 47.1C63.0109 45.6833 63.2943 44.4417 63.8609 43.375C64.4443 42.2917 65.2526 41.4583 66.2859 40.875C67.3359 40.2917 68.5359 40 69.8859 40C71.1859 40 72.3443 40.2833 73.3609 40.85C74.3776 41.4167 75.1693 42.2167 75.7359 43.25C76.3026 44.2667 76.5859 45.4417 76.5859 46.775ZM73.6109 45.875C73.5943 44.825 73.2193 43.9833 72.4859 43.35C71.7526 42.7167 70.8443 42.4 69.7609 42.4C68.7776 42.4 67.9359 42.7167 67.2359 43.35C66.5359 43.9667 66.1193 44.8083 65.9859 45.875H73.6109ZM83.6156 42.225C84.0323 41.525 84.5823 40.9833 85.2656 40.6C85.9656 40.2 86.7906 40 87.7406 40V42.95H87.0156C85.899 42.95 85.049 43.2333 84.4656 43.8C83.899 44.3667 83.6156 45.35 83.6156 46.75V54H80.7656V40.225H83.6156V42.225Z" fill="#296544"/>
<path d="M12 30.5C11.8556 31.5 11 34.2 11 37L11.5325 36.2792L12.4935 35.5L17 33L21.8333 30.9935L24.7468 29.3117L26.6688 27.8701L28.7667 26L30.9333 23L32.6667 20.5L34.4 16L35.2667 12L36 8L37 3.5L37 1.44156L36.5667 0L36.2792 1.44156L34.9643 3.5L31.5 6L28.7667 8L26.1667 10L24 11.5L21.8333 13.5L19.6667 16L17.9333 18.5L16.2 21L13.5 26L12 30.5Z" fill="url(#paint0_linear_1311_3592)"/>
<path d="M10.8167 30.5C10.8778 31.5 11 34.2 11 37L10.0833 35.5L9.35 34.5L8.06667 33L7.33334 32L6.41667 30.5L5.31667 29L4.58334 27.5L3.66667 25.5L2.56667 23L1.83334 20.5L1.10001 16L0.733339 12L0.423083 8L6.67572e-06 3.5V2L0.183339 0L0.211545 1.5L0.846159 3.5L2.32693 6L3.48334 8L4.58334 9.99999L5.5 11.5L6.41667 13.5L7.33334 16L8.06667 18.5L8.8 21L10.0833 26L10.8167 30.5Z" fill="url(#paint1_linear_1311_3592)"/>
<defs>
<linearGradient id="paint0_linear_1311_3592" x1="24" y1="0" x2="24" y2="37" gradientUnits="userSpaceOnUse">
<stop stop-color="#3DBC9F"/>
<stop offset="0.0001" stop-color="#4B9744"/>
<stop offset="0.140625" stop-color="#91C598"/>
<stop offset="1" stop-color="#D8F3ED"/>
</linearGradient>
<linearGradient id="paint1_linear_1311_3592" x1="5.5" y1="0" x2="5.5" y2="37" gradientUnits="userSpaceOnUse">
<stop stop-color="#FAFAFA"/>
<stop offset="1" stop-color="#D8F3ED"/>
</linearGradient>
</defs>
</svg>
