<svg width="62" height="44" viewBox="0 0 62 44" fill="none" xmlns="http://www.w3.org/2000/svg">
<path d="M5.592 33.584C5.592 32.6773 5.77333 31.8827 6.136 31.2C6.50933 30.5067 7.02133 29.9733 7.672 29.6C8.32267 29.2267 9.06933 29.04 9.912 29.04C10.9787 29.04 11.8587 29.296 12.552 29.808C13.256 30.3093 13.7307 31.0293 13.976 31.968H12.008C11.848 31.5307 11.592 31.1893 11.24 30.944C10.888 30.6987 10.4453 30.576 9.912 30.576C9.16533 30.576 8.568 30.8427 8.12 31.376C7.68267 31.8987 7.464 32.6347 7.464 33.584C7.464 34.5333 7.68267 35.2747 8.12 35.808C8.568 36.3413 9.16533 36.608 9.912 36.608C10.968 36.608 11.6667 36.144 12.008 35.216H13.976C13.72 36.112 13.24 36.8267 12.536 37.36C11.832 37.8827 10.9573 38.144 9.912 38.144C9.06933 38.144 8.32267 37.9573 7.672 37.584C7.02133 37.2 6.50933 36.6667 6.136 35.984C5.77333 35.2907 5.592 34.4907 5.592 33.584ZM18.4978 30.464C18.7644 30.016 19.1164 29.6693 19.5538 29.424C20.0018 29.168 20.5298 29.04 21.1378 29.04V30.928H20.6738C19.9591 30.928 19.4151 31.1093 19.0418 31.472C18.6791 31.8347 18.4978 32.464 18.4978 33.36V38H16.6738V29.184H18.4978V30.464ZM31.7744 33.376C31.7744 33.7067 31.753 34.0053 31.7104 34.272H24.9744C25.0277 34.976 25.289 35.5413 25.7584 35.968C26.2277 36.3947 26.8037 36.608 27.4864 36.608C28.4677 36.608 29.161 36.1973 29.5664 35.376H31.5344C31.2677 36.1867 30.7824 36.8533 30.0784 37.376C29.385 37.888 28.521 38.144 27.4864 38.144C26.6437 38.144 25.8864 37.9573 25.2144 37.584C24.553 37.2 24.0304 36.6667 23.6464 35.984C23.273 35.2907 23.0864 34.4907 23.0864 33.584C23.0864 32.6773 23.2677 31.8827 23.6304 31.2C24.0037 30.5067 24.521 29.9733 25.1824 29.6C25.8544 29.2267 26.6224 29.04 27.4864 29.04C28.3184 29.04 29.0597 29.2213 29.7104 29.584C30.361 29.9467 30.8677 30.4587 31.2304 31.12C31.593 31.7707 31.7744 32.5227 31.7744 33.376ZM29.8704 32.8C29.8597 32.128 29.6197 31.5893 29.1504 31.184C28.681 30.7787 28.0997 30.576 27.4064 30.576C26.777 30.576 26.2384 30.7787 25.7904 31.184C25.3424 31.5787 25.0757 32.1173 24.9904 32.8H29.8704ZM33.8414 33.552C33.8414 32.6667 34.0227 31.8827 34.3854 31.2C34.7587 30.5173 35.26 29.9893 35.8894 29.616C36.5294 29.232 37.2334 29.04 38.0014 29.04C38.6947 29.04 39.2974 29.1787 39.8094 29.456C40.332 29.7227 40.748 30.0587 41.0574 30.464V29.184H42.8974V38H41.0574V36.688C40.748 37.104 40.3267 37.4507 39.7934 37.728C39.26 38.0053 38.652 38.144 37.9694 38.144C37.212 38.144 36.5187 37.952 35.8894 37.568C35.26 37.1733 34.7587 36.6293 34.3854 35.936C34.0227 35.232 33.8414 34.4373 33.8414 33.552ZM41.0574 33.584C41.0574 32.976 40.9294 32.448 40.6734 32C40.428 31.552 40.1027 31.2107 39.6974 30.976C39.292 30.7413 38.8547 30.624 38.3854 30.624C37.916 30.624 37.4787 30.7413 37.0734 30.976C36.668 31.2 36.3374 31.536 36.0814 31.984C35.836 32.4213 35.7134 32.944 35.7134 33.552C35.7134 34.16 35.836 34.6933 36.0814 35.152C36.3374 35.6107 36.668 35.9627 37.0734 36.208C37.4894 36.4427 37.9267 36.56 38.3854 36.56C38.8547 36.56 39.292 36.4427 39.6974 36.208C40.1027 35.9733 40.428 35.632 40.6734 35.184C40.9294 34.7253 41.0574 34.192 41.0574 33.584ZM56.8451 29.04C57.5385 29.04 58.1571 29.184 58.7011 29.472C59.2558 29.76 59.6878 30.1867 59.9971 30.752C60.3171 31.3173 60.4771 32 60.4771 32.8V38H58.6691V33.072C58.6691 32.2827 58.4718 31.68 58.0771 31.264C57.6825 30.8373 57.1438 30.624 56.4611 30.624C55.7785 30.624 55.2345 30.8373 54.8291 31.264C54.4345 31.68 54.2371 32.2827 54.2371 33.072V38H52.4291V33.072C52.4291 32.2827 52.2318 31.68 51.8371 31.264C51.4425 30.8373 50.9038 30.624 50.2211 30.624C49.5385 30.624 48.9945 30.8373 48.5891 31.264C48.1945 31.68 47.9971 32.2827 47.9971 33.072V38H46.1731V29.184H47.9971V30.192C48.2958 29.8293 48.6745 29.5467 49.1331 29.344C49.5918 29.1413 50.0825 29.04 50.6051 29.04C51.3091 29.04 51.9385 29.1893 52.4931 29.488C53.0478 29.7867 53.4745 30.2187 53.7731 30.784C54.0398 30.2507 54.4558 29.8293 55.0211 29.52C55.5865 29.2 56.1945 29.04 56.8451 29.04Z" fill="#296544"/>
<path d="M8.24469 20.9557C8.14545 21.6428 7.55762 23.4979 7.55762 25.4217L7.92348 24.9264L8.58378 24.391L11.68 22.6734L15.0009 21.2948L17.0026 20.1392L18.3232 19.1488L19.7646 17.8639L21.2532 15.8027L22.4442 14.085L23.6351 10.9931L24.2306 8.24486L24.7344 5.49657L25.4215 2.40475L25.4215 0.990454L25.1238 0L24.9263 0.990454L24.0228 2.40475L21.6426 4.12243L19.7646 5.49657L17.9782 6.87072L16.4895 7.90133L15.0009 9.27547L13.5122 10.9931L12.3213 12.7108L11.1304 14.4285L9.2753 17.8639L8.24469 20.9557Z" fill="url(#paint0_linear_962_7233)"/>
<path d="M7.43165 20.9557C7.47364 21.6428 7.55762 23.4979 7.55762 25.4217L6.9278 24.391L6.42395 23.704L5.54221 22.6734L5.03835 21.9863L4.40854 20.9557L3.65276 19.9251L3.14891 18.8945L2.51909 17.5203L1.76331 15.8027L1.25946 14.085L0.755607 10.9931L0.503681 8.24486L0.290512 5.49657L-0.000172138 2.40475V1.37414L0.125791 0L0.14517 1.03061L0.581196 2.40475L1.59859 4.12243L2.39313 5.49657L3.14891 6.87072L3.77872 7.90133L4.40854 9.27547L5.03835 10.9931L5.54221 12.7108L6.04606 14.4285L6.9278 17.8639L7.43165 20.9557Z" fill="url(#paint1_linear_962_7233)"/>
<defs>
<linearGradient id="paint0_linear_962_7233" x1="16.4895" y1="0" x2="16.4895" y2="25.4217" gradientUnits="userSpaceOnUse">
<stop stop-color="#3DBC9F"/>
<stop offset="0.0001" stop-color="#4B9744"/>
<stop offset="0.140625" stop-color="#91C598"/>
<stop offset="1" stop-color="#D8F3ED"/>
</linearGradient>
<linearGradient id="paint1_linear_962_7233" x1="3.77872" y1="0" x2="3.77872" y2="25.4217" gradientUnits="userSpaceOnUse">
<stop stop-color="#FAFAFA"/>
<stop offset="1" stop-color="#D8F3ED"/>
</linearGradient>
</defs>
</svg>
