<svg width="88" height="64" viewBox="0 0 88 64" fill="none" xmlns="http://www.w3.org/2000/svg">
<path d="M10.725 51.7H16.6V54H7.875V36.625H10.725V51.7ZM26.3334 54.225C25.0334 54.225 23.8584 53.9333 22.8084 53.35C21.7584 52.75 20.9334 51.9167 20.3334 50.85C19.7334 49.7667 19.4334 48.5167 19.4334 47.1C19.4334 45.7 19.7417 44.4583 20.3584 43.375C20.9751 42.2917 21.8167 41.4583 22.8834 40.875C23.9501 40.2917 25.1417 40 26.4584 40C27.7751 40 28.9667 40.2917 30.0334 40.875C31.1001 41.4583 31.9417 42.2917 32.5584 43.375C33.1751 44.4583 33.4834 45.7 33.4834 47.1C33.4834 48.5 33.1667 49.7417 32.5334 50.825C31.9001 51.9083 31.0334 52.75 29.9334 53.35C28.8501 53.9333 27.6501 54.225 26.3334 54.225ZM26.3334 51.75C27.0667 51.75 27.7501 51.575 28.3834 51.225C29.0334 50.875 29.5584 50.35 29.9584 49.65C30.3584 48.95 30.5584 48.1 30.5584 47.1C30.5584 46.1 30.3667 45.2583 29.9834 44.575C29.6001 43.875 29.0917 43.35 28.4584 43C27.8251 42.65 27.1417 42.475 26.4084 42.475C25.6751 42.475 24.9917 42.65 24.3584 43C23.7417 43.35 23.2501 43.875 22.8834 44.575C22.5167 45.2583 22.3334 46.1 22.3334 47.1C22.3334 48.5833 22.7084 49.7333 23.4584 50.55C24.2251 51.35 25.1834 51.75 26.3334 51.75ZM41.0008 42.55V50.175C41.0008 50.6917 41.1174 51.0667 41.3508 51.3C41.6008 51.5167 42.0174 51.625 42.6008 51.625H44.3508V54H42.1008C40.8174 54 39.8341 53.7 39.1508 53.1C38.4674 52.5 38.1258 51.525 38.1258 50.175V42.55H36.5008V40.225H38.1258V36.8H41.0008V40.225H44.3508V42.55H41.0008ZM49.8025 38.4C49.2859 38.4 48.8525 38.225 48.5025 37.875C48.1525 37.525 47.9775 37.0917 47.9775 36.575C47.9775 36.0583 48.1525 35.625 48.5025 35.275C48.8525 34.925 49.2859 34.75 49.8025 34.75C50.3025 34.75 50.7275 34.925 51.0775 35.275C51.4275 35.625 51.6025 36.0583 51.6025 36.575C51.6025 37.0917 51.4275 37.525 51.0775 37.875C50.7275 38.225 50.3025 38.4 49.8025 38.4ZM51.2025 40.225V54H48.3525V40.225H51.2025ZM62.2943 54.225C60.9943 54.225 59.8193 53.9333 58.7693 53.35C57.7193 52.75 56.8943 51.9167 56.2943 50.85C55.6943 49.7667 55.3943 48.5167 55.3943 47.1C55.3943 45.7 55.7027 44.4583 56.3193 43.375C56.936 42.2917 57.7777 41.4583 58.8443 40.875C59.911 40.2917 61.1027 40 62.4193 40C63.736 40 64.9277 40.2917 65.9943 40.875C67.061 41.4583 67.9027 42.2917 68.5193 43.375C69.136 44.4583 69.4443 45.7 69.4443 47.1C69.4443 48.5 69.1277 49.7417 68.4943 50.825C67.861 51.9083 66.9943 52.75 65.8943 53.35C64.811 53.9333 63.611 54.225 62.2943 54.225ZM62.2943 51.75C63.0277 51.75 63.711 51.575 64.3443 51.225C64.9943 50.875 65.5193 50.35 65.9193 49.65C66.3193 48.95 66.5193 48.1 66.5193 47.1C66.5193 46.1 66.3277 45.2583 65.9443 44.575C65.561 43.875 65.0527 43.35 64.4193 43C63.786 42.65 63.1027 42.475 62.3693 42.475C61.636 42.475 60.9527 42.65 60.3193 43C59.7027 43.35 59.211 43.875 58.8443 44.575C58.4777 45.2583 58.2943 46.1 58.2943 47.1C58.2943 48.5833 58.6693 49.7333 59.4193 50.55C60.186 51.35 61.1443 51.75 62.2943 51.75ZM80.5867 40C81.6701 40 82.6367 40.225 83.4867 40.675C84.3534 41.125 85.0284 41.7917 85.5117 42.675C85.9951 43.5583 86.2367 44.625 86.2367 45.875V54H83.4117V46.3C83.4117 45.0667 83.1034 44.125 82.4867 43.475C81.8701 42.8083 81.0284 42.475 79.9617 42.475C78.8951 42.475 78.0451 42.8083 77.4117 43.475C76.7951 44.125 76.4867 45.0667 76.4867 46.3V54H73.6367V40.225H76.4867V41.8C76.9534 41.2333 77.5451 40.7917 78.2617 40.475C78.9951 40.1583 79.7701 40 80.5867 40Z" fill="#296544"/>
<path d="M12 30.5C11.8556 31.5 11 34.2 11 37L11.5325 36.2792L12.4935 35.5L17 33L21.8333 30.9935L24.7468 29.3117L26.6688 27.8701L28.7667 26L30.9333 23L32.6667 20.5L34.4 16L35.2667 12L36 8L37 3.5L37 1.44156L36.5667 0L36.2792 1.44156L34.9643 3.5L31.5 6L28.7667 8L26.1667 10L24 11.5L21.8333 13.5L19.6667 16L17.9333 18.5L16.2 21L13.5 26L12 30.5Z" fill="url(#paint0_linear_1311_3593)"/>
<path d="M10.8167 30.5C10.8778 31.5 11 34.2 11 37L10.0833 35.5L9.35 34.5L8.06667 33L7.33334 32L6.41667 30.5L5.31667 29L4.58334 27.5L3.66667 25.5L2.56667 23L1.83334 20.5L1.10001 16L0.733339 12L0.423083 8L6.67572e-06 3.5V2L0.183339 0L0.211545 1.5L0.846159 3.5L2.32693 6L3.48334 8L4.58334 9.99999L5.5 11.5L6.41667 13.5L7.33334 16L8.06667 18.5L8.8 21L10.0833 26L10.8167 30.5Z" fill="url(#paint1_linear_1311_3593)"/>
<defs>
<linearGradient id="paint0_linear_1311_3593" x1="24" y1="0" x2="24" y2="37" gradientUnits="userSpaceOnUse">
<stop stop-color="#3DBC9F"/>
<stop offset="0.0001" stop-color="#4B9744"/>
<stop offset="0.140625" stop-color="#91C598"/>
<stop offset="1" stop-color="#D8F3ED"/>
</linearGradient>
<linearGradient id="paint1_linear_1311_3593" x1="5.5" y1="0" x2="5.5" y2="37" gradientUnits="userSpaceOnUse">
<stop stop-color="#FAFAFA"/>
<stop offset="1" stop-color="#D8F3ED"/>
</linearGradient>
</defs>
</svg>
