<svg width="26" height="44" viewBox="0 0 26 44" fill="none" xmlns="http://www.w3.org/2000/svg">
<path d="M10.024 38.144C9.192 38.144 8.44 37.9573 7.768 37.584C7.096 37.2 6.568 36.6667 6.184 35.984C5.8 35.2907 5.608 34.4907 5.608 33.584C5.608 32.688 5.80533 31.8933 6.2 31.2C6.59467 30.5067 7.13333 29.9733 7.816 29.6C8.49867 29.2267 9.26133 29.04 10.104 29.04C10.9467 29.04 11.7093 29.2267 12.392 29.6C13.0747 29.9733 13.6133 30.5067 14.008 31.2C14.4027 31.8933 14.6 32.688 14.6 33.584C14.6 34.48 14.3973 35.2747 13.992 35.968C13.5867 36.6613 13.032 37.2 12.328 37.584C11.6347 37.9573 10.8667 38.144 10.024 38.144ZM10.024 36.56C10.4933 36.56 10.9307 36.448 11.336 36.224C11.752 36 12.088 35.664 12.344 35.216C12.6 34.768 12.728 34.224 12.728 33.584C12.728 32.944 12.6053 32.4053 12.36 31.968C12.1147 31.52 11.7893 31.184 11.384 30.96C10.9787 30.736 10.5413 30.624 10.072 30.624C9.60267 30.624 9.16533 30.736 8.76 30.96C8.36533 31.184 8.05067 31.52 7.816 31.968C7.58133 32.4053 7.464 32.944 7.464 33.584C7.464 34.5333 7.704 35.2693 8.184 35.792C8.67467 36.304 9.288 36.56 10.024 36.56ZM18.2111 28.016C17.8805 28.016 17.6031 27.904 17.3791 27.68C17.1551 27.456 17.0431 27.1787 17.0431 26.848C17.0431 26.5173 17.1551 26.24 17.3791 26.016C17.6031 25.792 17.8805 25.68 18.2111 25.68C18.5311 25.68 18.8031 25.792 19.0271 26.016C19.2511 26.24 19.3631 26.5173 19.3631 26.848C19.3631 27.1787 19.2511 27.456 19.0271 27.68C18.8031 27.904 18.5311 28.016 18.2111 28.016ZM19.1071 29.184V38H17.2831V29.184H19.1071ZM24.2059 26.16V38H22.3819V26.16H24.2059Z" fill="#296544"/>
<path d="M8.24469 20.9557C8.14545 21.6428 7.55762 23.4979 7.55762 25.4217L7.92348 24.9264L8.58378 24.391L11.68 22.6734L15.0009 21.2948L17.0026 20.1392L18.3232 19.1488L19.7646 17.8639L21.2532 15.8027L22.4442 14.085L23.6351 10.9931L24.2306 8.24486L24.7344 5.49657L25.4215 2.40475L25.4215 0.990454L25.1238 0L24.9263 0.990454L24.0228 2.40475L21.6426 4.12243L19.7646 5.49657L17.9782 6.87072L16.4895 7.90133L15.0009 9.27547L13.5122 10.9931L12.3213 12.7108L11.1304 14.4285L9.2753 17.8639L8.24469 20.9557Z" fill="url(#paint0_linear_962_6923)"/>
<path d="M7.43165 20.9557C7.47364 21.6428 7.55762 23.4979 7.55762 25.4217L6.9278 24.391L6.42395 23.704L5.54221 22.6734L5.03835 21.9863L4.40854 20.9557L3.65276 19.9251L3.14891 18.8945L2.51909 17.5203L1.76331 15.8027L1.25946 14.085L0.755607 10.9931L0.503681 8.24486L0.290512 5.49657L-0.000172138 2.40475V1.37414L0.125791 0L0.14517 1.03061L0.581196 2.40475L1.59859 4.12243L2.39313 5.49657L3.14891 6.87072L3.77872 7.90133L4.40854 9.27547L5.03835 10.9931L5.54221 12.7108L6.04606 14.4285L6.9278 17.8639L7.43165 20.9557Z" fill="url(#paint1_linear_962_6923)"/>
<defs>
<linearGradient id="paint0_linear_962_6923" x1="16.4895" y1="0" x2="16.4895" y2="25.4217" gradientUnits="userSpaceOnUse">
<stop stop-color="#3DBC9F"/>
<stop offset="0.0001" stop-color="#4B9744"/>
<stop offset="0.140625" stop-color="#91C598"/>
<stop offset="1" stop-color="#D8F3ED"/>
</linearGradient>
<linearGradient id="paint1_linear_962_6923" x1="3.77872" y1="0" x2="3.77872" y2="25.4217" gradientUnits="userSpaceOnUse">
<stop stop-color="#FAFAFA"/>
<stop offset="1" stop-color="#D8F3ED"/>
</linearGradient>
</defs>
</svg>
