<svg width="85" height="64" viewBox="0 0 85 64" fill="none" xmlns="http://www.w3.org/2000/svg">
<path d="M13.6 54.175C12.4333 54.175 11.3833 53.975 10.45 53.575C9.51667 53.1583 8.78333 52.575 8.25 51.825C7.71667 51.075 7.45 50.2 7.45 49.2H10.5C10.5667 49.95 10.8583 50.5667 11.375 51.05C11.9083 51.5333 12.65 51.775 13.6 51.775C14.5833 51.775 15.35 51.5417 15.9 51.075C16.45 50.5917 16.725 49.975 16.725 49.225C16.725 48.6417 16.55 48.1667 16.2 47.8C15.8667 47.4333 15.4417 47.15 14.925 46.95C14.425 46.75 13.725 46.5333 12.825 46.3C11.6917 46 10.7667 45.7 10.05 45.4C9.35 45.0833 8.75 44.6 8.25 43.95C7.75 43.3 7.5 42.4333 7.5 41.35C7.5 40.35 7.75 39.475 8.25 38.725C8.75 37.975 9.45 37.4 10.35 37C11.25 36.6 12.2917 36.4 13.475 36.4C15.1583 36.4 16.5333 36.825 17.6 37.675C18.6833 38.5083 19.2833 39.6583 19.4 41.125H16.25C16.2 40.4917 15.9 39.95 15.35 39.5C14.8 39.05 14.075 38.825 13.175 38.825C12.3583 38.825 11.6917 39.0333 11.175 39.45C10.6583 39.8667 10.4 40.4667 10.4 41.25C10.4 41.7833 10.5583 42.225 10.875 42.575C11.2083 42.9083 11.625 43.175 12.125 43.375C12.625 43.575 13.3083 43.7917 14.175 44.025C15.325 44.3417 16.2583 44.6583 16.975 44.975C17.7083 45.2917 18.325 45.7833 18.825 46.45C19.3417 47.1 19.6 47.975 19.6 49.075C19.6 49.9583 19.3583 50.7917 18.875 51.575C18.4083 52.3583 17.7167 52.9917 16.8 53.475C15.9 53.9417 14.8333 54.175 13.6 54.175ZM23.3879 47.1C23.3879 45.6833 23.6712 44.4417 24.2379 43.375C24.8212 42.2917 25.6212 41.4583 26.6379 40.875C27.6546 40.2917 28.8212 40 30.1379 40C31.8046 40 33.1796 40.4 34.2629 41.2C35.3629 41.9833 36.1046 43.1083 36.4879 44.575H33.4129C33.1629 43.8917 32.7629 43.3583 32.2129 42.975C31.6629 42.5917 30.9712 42.4 30.1379 42.4C28.9712 42.4 28.0379 42.8167 27.3379 43.65C26.6546 44.4667 26.3129 45.6167 26.3129 47.1C26.3129 48.5833 26.6546 49.7417 27.3379 50.575C28.0379 51.4083 28.9712 51.825 30.1379 51.825C31.7879 51.825 32.8796 51.1 33.4129 49.65H36.4879C36.0879 51.05 35.3379 52.1667 34.2379 53C33.1379 53.8167 31.7712 54.225 30.1379 54.225C28.8212 54.225 27.6546 53.9333 26.6379 53.35C25.6212 52.75 24.8212 51.9167 24.2379 50.85C23.6712 49.7667 23.3879 48.5167 23.3879 47.1ZM43.5531 42.225C43.9698 41.525 44.5198 40.9833 45.2031 40.6C45.9031 40.2 46.7281 40 47.6781 40V42.95H46.9531C45.8365 42.95 44.9865 43.2333 44.4031 43.8C43.8365 44.3667 43.5531 45.35 43.5531 46.75V54H40.7031V40.225H43.5531V42.225ZM64.1479 40.225V54H61.2979V52.375C60.8479 52.9417 60.2562 53.3917 59.5229 53.725C58.8062 54.0417 58.0395 54.2 57.2229 54.2C56.1395 54.2 55.1645 53.975 54.2979 53.525C53.4479 53.075 52.7729 52.4083 52.2729 51.525C51.7895 50.6417 51.5479 49.575 51.5479 48.325V40.225H54.3729V47.9C54.3729 49.1333 54.6812 50.0833 55.2979 50.75C55.9145 51.4 56.7562 51.725 57.8229 51.725C58.8895 51.725 59.7312 51.4 60.3479 50.75C60.9812 50.0833 61.2979 49.1333 61.2979 47.9V40.225H64.1479ZM72.1332 42.275C72.6165 41.6083 73.2749 41.0667 74.1082 40.65C74.9582 40.2167 75.8999 40 76.9332 40C78.1499 40 79.2499 40.2917 80.2332 40.875C81.2165 41.4583 81.9915 42.2917 82.5582 43.375C83.1249 44.4417 83.4082 45.6667 83.4082 47.05C83.4082 48.4333 83.1249 49.675 82.5582 50.775C81.9915 51.8583 81.2082 52.7083 80.2082 53.325C79.2249 53.925 78.1332 54.225 76.9332 54.225C75.8665 54.225 74.9165 54.0167 74.0832 53.6C73.2665 53.1833 72.6165 52.65 72.1332 52V54H69.2832V35.5H72.1332V42.275ZM80.5082 47.05C80.5082 46.1 80.3082 45.2833 79.9082 44.6C79.5249 43.9 79.0082 43.375 78.3582 43.025C77.7249 42.6583 77.0415 42.475 76.3082 42.475C75.5915 42.475 74.9082 42.6583 74.2582 43.025C73.6249 43.3917 73.1082 43.925 72.7082 44.625C72.3249 45.325 72.1332 46.15 72.1332 47.1C72.1332 48.05 72.3249 48.8833 72.7082 49.6C73.1082 50.3 73.6249 50.8333 74.2582 51.2C74.9082 51.5667 75.5915 51.75 76.3082 51.75C77.0415 51.75 77.7249 51.5667 78.3582 51.2C79.0082 50.8167 79.5249 50.2667 79.9082 49.55C80.3082 48.8333 80.5082 48 80.5082 47.05Z" fill="#296544"/>
<path d="M12 30.5C11.8556 31.5 11 34.2 11 37L11.5325 36.2792L12.4935 35.5L17 33L21.8333 30.9935L24.7468 29.3117L26.6688 27.8701L28.7667 26L30.9333 23L32.6667 20.5L34.4 16L35.2667 12L36 8L37 3.5L37 1.44156L36.5667 0L36.2792 1.44156L34.9643 3.5L31.5 6L28.7667 8L26.1667 10L24 11.5L21.8333 13.5L19.6667 16L17.9333 18.5L16.2 21L13.5 26L12 30.5Z" fill="url(#paint0_linear_1311_3591)"/>
<path d="M10.8167 30.5C10.8778 31.5 11 34.2 11 37L10.0833 35.5L9.35 34.5L8.06667 33L7.33334 32L6.41667 30.5L5.31667 29L4.58334 27.5L3.66667 25.5L2.56667 23L1.83334 20.5L1.10001 16L0.733339 12L0.423083 8L6.67572e-06 3.5V2L0.183339 0L0.211545 1.5L0.846159 3.5L2.32693 6L3.48334 8L4.58334 9.99999L5.5 11.5L6.41667 13.5L7.33334 16L8.06667 18.5L8.8 21L10.0833 26L10.8167 30.5Z" fill="url(#paint1_linear_1311_3591)"/>
<defs>
<linearGradient id="paint0_linear_1311_3591" x1="24" y1="0" x2="24" y2="37" gradientUnits="userSpaceOnUse">
<stop stop-color="#3DBC9F"/>
<stop offset="0.0001" stop-color="#4B9744"/>
<stop offset="0.140625" stop-color="#91C598"/>
<stop offset="1" stop-color="#D8F3ED"/>
</linearGradient>
<linearGradient id="paint1_linear_1311_3591" x1="5.5" y1="0" x2="5.5" y2="37" gradientUnits="userSpaceOnUse">
<stop stop-color="#FAFAFA"/>
<stop offset="1" stop-color="#D8F3ED"/>
</linearGradient>
</defs>
</svg>
