<svg width="82" height="64" viewBox="0 0 82 64" fill="none" xmlns="http://www.w3.org/2000/svg">
<path d="M30.5 36.625L25.35 54H22.125L18.475 40.85L14.6 54L11.4 54.025L6.475 36.625H9.5L13.1 50.775L17 36.625H20.2L23.825 50.7L27.45 36.625H30.5ZM33.2756 47.05C33.2756 45.6667 33.5589 44.4417 34.1256 43.375C34.7089 42.3083 35.4923 41.4833 36.4756 40.9C37.4756 40.3 38.5756 40 39.7756 40C40.8589 40 41.8006 40.2167 42.6006 40.65C43.4173 41.0667 44.0673 41.5917 44.5506 42.225V40.225H47.4256V54H44.5506V51.95C44.0673 52.6 43.4089 53.1417 42.5756 53.575C41.7423 54.0083 40.7923 54.225 39.7256 54.225C38.5423 54.225 37.4589 53.925 36.4756 53.325C35.4923 52.7083 34.7089 51.8583 34.1256 50.775C33.5589 49.675 33.2756 48.4333 33.2756 47.05ZM44.5506 47.1C44.5506 46.15 44.3506 45.325 43.9506 44.625C43.5673 43.925 43.0589 43.3917 42.4256 43.025C41.7923 42.6583 41.1089 42.475 40.3756 42.475C39.6423 42.475 38.9589 42.6583 38.3256 43.025C37.6923 43.375 37.1756 43.9 36.7756 44.6C36.3923 45.2833 36.2006 46.1 36.2006 47.05C36.2006 48 36.3923 48.8333 36.7756 49.55C37.1756 50.2667 37.6923 50.8167 38.3256 51.2C38.9756 51.5667 39.6589 51.75 40.3756 51.75C41.1089 51.75 41.7923 51.5667 42.4256 51.2C43.0589 50.8333 43.5673 50.3 43.9506 49.6C44.3506 48.8833 44.5506 48.05 44.5506 47.1ZM57.5439 54.225C56.4606 54.225 55.4856 54.0333 54.6189 53.65C53.7689 53.25 53.0939 52.7167 52.5939 52.05C52.0939 51.3667 51.8273 50.6083 51.7939 49.775H54.7439C54.7939 50.3583 55.0689 50.85 55.5689 51.25C56.0856 51.6333 56.7273 51.825 57.4939 51.825C58.2939 51.825 58.9106 51.675 59.3439 51.375C59.7939 51.0583 60.0189 50.6583 60.0189 50.175C60.0189 49.6583 59.7689 49.275 59.2689 49.025C58.7856 48.775 58.0106 48.5 56.9439 48.2C55.9106 47.9167 55.0689 47.6417 54.4189 47.375C53.7689 47.1083 53.2023 46.7 52.7189 46.15C52.2523 45.6 52.0189 44.875 52.0189 43.975C52.0189 43.2417 52.2356 42.575 52.6689 41.975C53.1023 41.3583 53.7189 40.875 54.5189 40.525C55.3356 40.175 56.2689 40 57.3189 40C58.8856 40 60.1439 40.4 61.0939 41.2C62.0606 41.9833 62.5773 43.0583 62.6439 44.425H59.7939C59.7439 43.8083 59.4939 43.3167 59.0439 42.95C58.5939 42.5833 57.9856 42.4 57.2189 42.4C56.4689 42.4 55.8939 42.5417 55.4939 42.825C55.0939 43.1083 54.8939 43.4833 54.8939 43.95C54.8939 44.3167 55.0273 44.625 55.2939 44.875C55.5606 45.125 55.8856 45.325 56.2689 45.475C56.6523 45.6083 57.2189 45.7833 57.9689 46C58.9689 46.2667 59.7856 46.5417 60.4189 46.825C61.0689 47.0917 61.6273 47.4917 62.0939 48.025C62.5606 48.5583 62.8023 49.2667 62.8189 50.15C62.8189 50.9333 62.6023 51.6333 62.1689 52.25C61.7356 52.8667 61.1189 53.35 60.3189 53.7C59.5356 54.05 58.6106 54.225 57.5439 54.225ZM74.3984 40C75.4484 40 76.3818 40.225 77.1984 40.675C78.0318 41.125 78.6818 41.7917 79.1484 42.675C79.6318 43.5583 79.8734 44.625 79.8734 45.875V54H77.0484V46.3C77.0484 45.0667 76.7401 44.125 76.1234 43.475C75.5068 42.8083 74.6651 42.475 73.5984 42.475C72.5318 42.475 71.6818 42.8083 71.0484 43.475C70.4318 44.125 70.1234 45.0667 70.1234 46.3V54H67.2734V35.5H70.1234V41.825C70.6068 41.2417 71.2151 40.7917 71.9484 40.475C72.6984 40.1583 73.5151 40 74.3984 40Z" fill="#296544"/>
<path d="M12 30.5C11.8556 31.5 11 34.2 11 37L11.5325 36.2792L12.4935 35.5L17 33L21.8333 30.9935L24.7468 29.3117L26.6688 27.8701L28.7667 26L30.9333 23L32.6667 20.5L34.4 16L35.2667 12L36 8L37 3.5L37 1.44156L36.5667 0L36.2792 1.44156L34.9643 3.5L31.5 6L28.7667 8L26.1667 10L24 11.5L21.8333 13.5L19.6667 16L17.9333 18.5L16.2 21L13.5 26L12 30.5Z" fill="url(#paint0_linear_1311_3590)"/>
<path d="M10.8167 30.5C10.8778 31.5 11 34.2 11 37L10.0833 35.5L9.35 34.5L8.06667 33L7.33334 32L6.41667 30.5L5.31667 29L4.58334 27.5L3.66667 25.5L2.56667 23L1.83334 20.5L1.10001 16L0.733339 12L0.423083 8L6.67572e-06 3.5V2L0.183339 0L0.211545 1.5L0.846159 3.5L2.32693 6L3.48334 8L4.58334 9.99999L5.5 11.5L6.41667 13.5L7.33334 16L8.06667 18.5L8.8 21L10.0833 26L10.8167 30.5Z" fill="url(#paint1_linear_1311_3590)"/>
<defs>
<linearGradient id="paint0_linear_1311_3590" x1="24" y1="0" x2="24" y2="37" gradientUnits="userSpaceOnUse">
<stop stop-color="#3DBC9F"/>
<stop offset="0.0001" stop-color="#4B9744"/>
<stop offset="0.140625" stop-color="#91C598"/>
<stop offset="1" stop-color="#D8F3ED"/>
</linearGradient>
<linearGradient id="paint1_linear_1311_3590" x1="5.5" y1="0" x2="5.5" y2="37" gradientUnits="userSpaceOnUse">
<stop stop-color="#FAFAFA"/>
<stop offset="1" stop-color="#D8F3ED"/>
</linearGradient>
</defs>
</svg>
