<svg width="49" height="49" viewBox="0 0 49 49" fill="none" xmlns="http://www.w3.org/2000/svg">
<path d="M10.2083 14.2915H38.3628C38.9333 14.2915 39.4975 14.4111 40.0189 14.6425C40.5404 14.8739 41.0075 15.212 41.3903 15.6349C41.7731 16.0579 42.063 16.5564 42.2414 17.0983C42.4197 17.6402 42.4825 18.2135 42.4258 18.7811L41.2008 31.0311C41.1 32.0387 40.6285 32.9729 39.8777 33.6524C39.1269 34.3319 38.1504 34.7081 37.1378 34.7082H17.6399C16.6956 34.7085 15.7803 34.3816 15.05 33.783C14.3196 33.1844 13.8193 32.3512 13.6342 31.4252L10.2083 14.2915Z" stroke="#296544" stroke-width="4.08333" stroke-linejoin="round"/>
<path d="M32.6666 42.875H36.7499M10.2083 14.2917L8.5545 7.67054C8.4439 7.22904 8.18895 6.83715 7.83013 6.55713C7.47132 6.27711 7.02923 6.12501 6.57409 6.125H4.08325L10.2083 14.2917ZM16.3333 42.875H20.4166H16.3333Z" stroke="#296544" stroke-width="4.08333" stroke-linecap="round" stroke-linejoin="round"/>
</svg>
