<svg width="39" height="40" viewBox="0 0 39 40" fill="none" xmlns="http://www.w3.org/2000/svg">
<path d="M33.3086 14.1248C33.2926 12.9221 33.0671 11.7314 32.6423 10.6058C32.274 9.65648 31.7114 8.79429 30.9905 8.07436C30.2695 7.35442 29.4062 6.79258 28.4555 6.42473C27.3429 6.00766 26.1676 5.78214 24.9795 5.75778C23.4497 5.6895 22.9648 5.67044 19.0816 5.67044C15.1985 5.67044 14.7008 5.67044 13.1822 5.75778C11.9946 5.78232 10.8198 6.00783 9.70777 6.42473C8.75696 6.79232 7.89346 7.35408 7.17251 8.07404C6.45156 8.79401 5.88904 9.65633 5.52094 10.6058C5.10247 11.716 4.87713 12.8895 4.85467 14.0756C4.7863 15.6048 4.76562 16.0891 4.76562 19.9669C4.76562 23.8447 4.76562 24.3402 4.85467 25.8583C4.87852 27.0461 5.10273 28.218 5.52094 29.3312C5.88966 30.2804 6.4526 31.1424 7.17379 31.862C7.89498 32.5817 8.75856 33.1432 9.70936 33.5107C10.8184 33.9445 11.9934 34.1862 13.1838 34.2253C14.7151 34.2936 15.2001 34.3142 19.0832 34.3142C22.9663 34.3142 23.4641 34.3142 24.9826 34.2253C26.1707 34.2019 27.3462 33.9769 28.4587 33.5599C29.4091 33.1917 30.2722 32.6297 30.9931 31.9098C31.714 31.1899 32.2767 30.3279 32.6455 29.3788C33.0637 28.2672 33.2879 27.0953 33.3118 25.9059C33.3802 24.3783 33.4008 23.894 33.4008 20.0146C33.3976 16.1367 33.3977 15.6445 33.3086 14.1248V14.1248ZM19.0721 27.3002C15.0109 27.3002 11.7209 24.0147 11.7209 19.959C11.7209 15.9033 15.0109 12.6178 19.0721 12.6178C21.0218 12.6178 22.8916 13.3912 24.2702 14.768C25.6488 16.1447 26.4233 18.012 26.4233 19.959C26.4233 21.906 25.6488 23.7732 24.2702 25.15C22.8916 26.5267 21.0218 27.3002 19.0721 27.3002V27.3002ZM26.7159 14.0581C26.4907 14.0583 26.2677 14.0142 26.0597 13.9282C25.8516 13.8423 25.6625 13.7162 25.5033 13.5572C25.3441 13.3982 25.2178 13.2094 25.1318 13.0016C25.0457 12.7938 25.0015 12.5711 25.0017 12.3463C25.0017 12.1216 25.046 11.8991 25.1321 11.6915C25.2182 11.4839 25.3445 11.2953 25.5036 11.1364C25.6627 10.9775 25.8515 10.8515 26.0594 10.7655C26.2673 10.6795 26.4901 10.6352 26.7151 10.6352C26.9401 10.6352 27.1629 10.6795 27.3708 10.7655C27.5786 10.8515 27.7675 10.9775 27.9266 11.1364C28.0857 11.2953 28.2119 11.4839 28.298 11.6915C28.3842 11.8991 28.4285 12.1216 28.4285 12.3463C28.4285 13.2927 27.662 14.0581 26.7159 14.0581Z" fill="white"/>
<path d="M19.0711 24.7276C21.7083 24.7276 23.8463 22.5926 23.8463 19.959C23.8463 17.3253 21.7083 15.1903 19.0711 15.1903C16.4338 15.1903 14.2959 17.3253 14.2959 19.959C14.2959 22.5926 16.4338 24.7276 19.0711 24.7276Z" fill="white"/>
</svg>
