<svg width="28" height="37" viewBox="0 0 28 37" fill="none" xmlns="http://www.w3.org/2000/svg">
<path d="M11.9111 36.0526C8.21672 31.509 0 20.4968 0 14.3112C0 6.80648 6.08363 0.722847 13.5884 0.722847C21.0903 0.722847 27.1768 6.80648 27.1768 14.3112C27.1768 20.4968 18.8963 31.509 15.2657 36.0526C14.3952 37.1355 12.7816 37.1355 11.9111 36.0526V36.0526ZM13.5884 18.8407C16.0867 18.8407 18.1178 16.8095 18.1178 14.3112C18.1178 11.8129 16.0867 9.78177 13.5884 9.78177C11.0901 9.78177 9.05892 11.8129 9.05892 14.3112C9.05892 16.8095 11.0901 18.8407 13.5884 18.8407Z" fill="white"/>
</svg>
