<svg width="31" height="25" viewBox="0 0 31 25" fill="none" xmlns="http://www.w3.org/2000/svg">
<path d="M25.9117 0.939978H5.34552C4.1767 0.939978 3.05575 1.40429 2.22927 2.23077C1.40279 3.05725 0.938477 4.1782 0.938477 5.34702V20.0372C0.938477 21.206 1.40279 22.3269 2.22927 23.1534C3.05575 23.9799 4.1767 24.4442 5.34552 24.4442H25.9117C27.0805 24.4442 28.2015 23.9799 29.028 23.1534C29.8544 22.3269 30.3188 21.206 30.3188 20.0372V5.34702C30.3188 4.1782 29.8544 3.05725 29.028 2.23077C28.2015 1.40429 27.0805 0.939978 25.9117 0.939978V0.939978ZM25.9117 3.87801L16.3631 10.4445C16.1398 10.5734 15.8865 10.6413 15.6286 10.6413C15.3708 10.6413 15.1174 10.5734 14.8941 10.4445L5.34552 3.87801H25.9117Z" fill="white"/>
</svg>
