<svg width="51" height="52" viewBox="0 0 51 52" fill="none" xmlns="http://www.w3.org/2000/svg">
<path d="M39.8933 17.659C38.7738 18.1671 37.6543 18.472 36.3314 18.6753C37.5526 17.8622 38.5703 16.7443 39.0791 15.3215C37.8579 16.0329 36.5349 16.5411 35.2119 16.8459C34.0924 15.6264 32.4641 14.915 30.7341 14.915C27.3757 14.915 24.5262 17.659 24.5262 21.1144C24.5262 21.6226 24.6279 22.0291 24.7297 22.5372C19.6413 22.334 15.0617 19.7932 12.0086 16.1345C11.4998 16.8459 11.1944 17.8622 11.1944 18.9802C11.1944 21.1144 12.3139 23.0454 13.9422 24.0617C12.9245 24.0617 12.0086 23.7568 11.1944 23.2486V23.3503C11.1944 26.2975 13.3316 28.8383 16.1811 29.3464C15.6723 29.4481 15.1634 29.5497 14.5528 29.5497C14.1457 29.5497 13.7387 29.5497 13.4334 29.4481C14.2475 31.8872 16.4864 33.7165 19.2342 33.7165C17.097 35.3426 14.451 36.3589 11.6015 36.3589C11.0927 36.3589 10.5838 36.3589 10.1768 36.2573C12.6192 38.1882 15.8758 39.2045 19.336 39.2045C30.6323 39.2045 36.8402 29.8546 36.8402 21.7242V20.9111C38.0614 19.9965 39.0791 18.9802 39.8933 17.659Z" fill="white"/>
</svg>
