<svg width="31" height="31" viewBox="0 0 31 31" fill="none" xmlns="http://www.w3.org/2000/svg">
<path d="M0.944372 30.143L2.93048 22.845C1.62179 20.6016 0.93423 18.0501 0.938496 15.4529C0.938496 7.33953 7.51527 0.762753 15.6286 0.762753C23.742 0.762753 30.3188 7.33953 30.3188 15.4529C30.3188 23.5663 23.742 30.143 15.6286 30.143C13.0326 30.1472 10.4822 29.4602 8.2395 28.1525L0.944372 30.143ZM10.327 8.56028C10.1373 8.57206 9.95189 8.62202 9.78196 8.70718C9.6226 8.79742 9.47713 8.91023 9.35007 9.04212C9.17379 9.20811 9.0739 9.35208 8.96666 9.49163C8.42373 10.1982 8.13168 11.0656 8.13667 11.9566C8.1396 12.6765 8.32764 13.3772 8.62144 14.0324C9.22227 15.3574 10.2109 16.7603 11.5169 18.0604C11.8312 18.3733 12.1383 18.6877 12.4688 18.98C14.0897 20.4071 16.0212 21.4362 18.1098 21.9856L18.9457 22.1134C19.2174 22.1281 19.4892 22.1075 19.7624 22.0943C20.1903 22.0722 20.608 21.9564 20.9861 21.755C21.1785 21.6559 21.3662 21.548 21.5488 21.4318C21.5488 21.4318 21.6119 21.3906 21.7324 21.2996C21.9307 21.1527 22.0526 21.0484 22.2172 20.8765C22.3391 20.7502 22.4449 20.6018 22.5257 20.4329C22.6402 20.1934 22.7548 19.7365 22.8018 19.3561C22.8371 19.0652 22.8268 18.9065 22.8224 18.8081C22.8165 18.6509 22.6858 18.4879 22.5433 18.4188L21.6883 18.0354C21.6883 18.0354 20.4103 17.4787 19.6302 17.1232C19.548 17.0873 19.4598 17.0669 19.3702 17.0629C19.2697 17.0526 19.1682 17.0639 19.0724 17.0961C18.9766 17.1283 18.8888 17.1806 18.8149 17.2495V17.2466C18.8076 17.2466 18.7092 17.3303 17.6471 18.6171C17.5861 18.6991 17.5021 18.761 17.4059 18.795C17.3096 18.829 17.2054 18.8336 17.1065 18.8081C17.0107 18.7825 16.917 18.7501 16.8259 18.7112C16.6437 18.6348 16.5806 18.6054 16.4557 18.551L16.4483 18.5481C15.6079 18.1812 14.8298 17.6856 14.142 17.0791C13.9569 16.9175 13.785 16.7412 13.6087 16.5708C13.0308 16.0173 12.5271 15.3912 12.1103 14.7081L12.0237 14.5685C11.9614 14.4748 11.9111 14.3736 11.8738 14.2674C11.818 14.0515 11.9634 13.8781 11.9634 13.8781C11.9634 13.8781 12.3204 13.4874 12.4864 13.2758C12.6246 13.1 12.7536 12.9171 12.8728 12.7279C13.0461 12.4488 13.1005 12.1623 13.0094 11.9405C12.5981 10.9357 12.172 9.93528 11.7343 8.94222C11.6476 8.74537 11.3905 8.60435 11.157 8.57644C11.0776 8.56762 10.9983 8.55881 10.919 8.55293C10.7217 8.54313 10.524 8.5451 10.327 8.55881V8.56028Z" fill="white"/>
</svg>
