<svg width="42" height="42" viewBox="0 0 42 42" fill="none" xmlns="http://www.w3.org/2000/svg">
<path d="M37.7994 12.7402C37.6032 12.0132 37.2198 11.3502 36.6872 10.8171C36.1547 10.2841 35.4917 9.8997 34.7641 9.7021C32.0664 8.96237 21.2741 8.95033 21.2741 8.95033C21.2741 8.95033 10.4834 8.93829 7.78398 9.64533C7.0569 9.85202 6.39522 10.2419 5.86248 10.7775C5.32974 11.3131 4.94383 11.9765 4.74179 12.704C4.03033 15.398 4.02344 20.9855 4.02344 20.9855C4.02344 20.9855 4.01655 26.6006 4.72284 29.2671C5.11905 30.7414 6.28183 31.906 7.75987 32.3034C10.4851 33.0431 21.2482 33.0552 21.2482 33.0552C21.2482 33.0552 32.0406 33.0672 34.7383 32.3619C35.4661 32.1646 36.1297 31.7811 36.6636 31.2492C37.1975 30.7172 37.583 30.0554 37.7822 29.329C38.4954 26.6367 38.5005 21.0509 38.5005 21.0509C38.5005 21.0509 38.535 15.4341 37.7994 12.7402V12.7402ZM17.8219 26.1619L17.8305 15.8401L26.8003 21.0096L17.8219 26.1619V26.1619Z" fill="white"/>
</svg>
